<svg width="56" height="56" viewBox="0 0 56 56" fill="none" xmlns="http://www.w3.org/2000/svg">
    <g clip-path="url(#clip0_49_962)">
    <path d="M9.58949 45.5894C9.37251 45.5894 9.161 45.677 9.00867 45.8305C8.85525 45.9828 8.76758 46.1954 8.76758 46.4113C8.76758 46.6272 8.85525 46.8398 9.00867 46.9921C9.161 47.1455 9.37251 47.2332 9.58949 47.2332C9.80538 47.2332 10.018 47.1455 10.1703 46.9921C10.3237 46.8398 10.4114 46.6272 10.4114 46.4113C10.4114 46.1954 10.3237 45.9828 10.1703 45.8305C10.018 45.677 9.80538 45.5894 9.58949 45.5894Z" fill="#2A7AC0"/>
    <path d="M54.5968 37.0631L48.1999 43.46C47.6778 43.1424 47.0653 42.9593 46.4109 42.9593C45.7275 42.9593 45.0903 43.1598 44.5536 43.5038C44.514 43.393 44.4506 43.2888 44.362 43.2002L35.5949 34.4331C35.5544 34.3926 35.5108 34.3573 35.4649 34.3271L36.0475 24.4238C36.2029 24.3937 36.3512 24.3184 36.4716 24.1981L47.8688 12.8009C47.9114 12.7582 47.9481 12.7119 47.9793 12.6631C48.0542 12.6247 48.1282 12.5844 48.1999 12.5408L54.5968 18.9377C54.7572 19.0982 54.9677 19.1785 55.178 19.1785C55.3883 19.1785 55.5987 19.0983 55.7591 18.9377C56.0801 18.6168 56.0801 18.0964 55.7591 17.7754L49.3622 11.3785C49.6799 10.8564 49.8629 10.2439 49.8629 9.58948C49.8629 7.68604 48.3143 6.13744 46.4109 6.13744C45.7564 6.13744 45.1439 6.32056 44.6218 6.63815L38.225 0.241228C37.904 -0.0797581 37.3836 -0.0797581 37.0627 0.241228C36.7417 0.562213 36.7417 1.08254 37.0627 1.40353L43.4596 7.80045C43.1419 8.32253 42.9588 8.93502 42.9588 9.58948C42.9588 9.73502 42.9689 9.87814 42.9864 10.019L34.756 15.7803C34.531 15.4628 34.2835 15.1575 34.011 14.8684C32.4338 13.1956 30.299 12.2744 27.9999 12.2744C25.7009 12.2744 23.5661 13.1956 21.9889 14.8684C21.7163 15.1575 21.4689 15.4627 21.2439 15.7803L13.0134 10.019C13.031 9.87814 13.041 9.73502 13.041 9.58948C13.041 8.93502 12.8579 8.32253 12.5403 7.80045L18.9373 1.40353C19.2582 1.08254 19.2582 0.562213 18.9373 0.241228C18.6163 -0.0797581 18.0958 -0.0797581 17.775 0.241228L11.378 6.63815C10.856 6.32056 10.2435 6.13744 9.589 6.13744C7.68555 6.13744 6.13695 7.68604 6.13695 9.58948C6.13695 10.2439 6.32007 10.8564 6.63766 11.3785L0.240739 17.7754C-0.0802464 18.0964 -0.0802464 18.6168 0.240739 18.9377C0.401177 19.0983 0.611588 19.1785 0.821889 19.1785C1.03219 19.1785 1.2426 19.0983 1.40304 18.9377L7.79996 12.5408C7.87163 12.5844 7.9456 12.6247 8.02056 12.6631C8.0519 12.7119 8.0884 12.7582 8.13103 12.8009L19.5283 24.1981C19.6486 24.3184 19.797 24.3937 19.9524 24.4238L20.535 34.3271C20.489 34.3573 20.4454 34.3926 20.405 34.4331L11.6379 43.2002C11.5491 43.2889 11.4859 43.3931 11.4462 43.5038C10.9095 43.1598 10.2725 42.9593 9.589 42.9593C8.93453 42.9593 8.32204 43.1424 7.79996 43.46L1.40304 37.0631C1.08205 36.7421 0.561615 36.7421 0.240739 37.0631C-0.0802464 37.3841 -0.0802464 37.9045 0.240739 38.2254L6.63766 44.6223C6.32007 45.1444 6.13695 45.7569 6.13695 46.4113C6.13695 48.3148 7.68555 49.8634 9.589 49.8634C10.2435 49.8634 10.856 49.6804 11.378 49.3628L17.775 55.7597C17.9354 55.9202 18.1458 56.0005 18.3561 56.0005C18.5664 56.0005 18.7768 55.9202 18.9373 55.7597C19.2582 55.4387 19.2582 54.9183 18.9373 54.5974L12.7047 48.3648L22.7266 42.9684C23.4239 43.4466 24.266 43.7264 25.1696 43.7264H30.8303C31.7338 43.7264 32.5759 43.4466 33.2732 42.9684L43.2951 48.3648L37.0626 54.5974C36.7416 54.9184 36.7416 55.4388 37.0626 55.7597C37.223 55.9202 37.4334 56.0005 37.6437 56.0005C37.854 56.0005 38.0645 55.9202 38.2249 55.7597L44.6218 49.3628C45.1439 49.6804 45.7564 49.8634 46.4109 49.8634C48.3143 49.8634 49.8629 48.3148 49.8629 46.4113C49.8629 45.7569 49.6798 45.1444 49.3622 44.6224L55.7591 38.2255C56.0801 37.9045 56.0801 37.3841 55.7591 37.0632C55.4382 36.7422 54.9178 36.7422 54.5968 37.0631ZM43.1996 44.3625C43.2883 44.4512 43.3926 44.5145 43.5033 44.5541C43.1751 45.0662 42.9785 45.67 42.9612 46.318L34.4663 41.7438C34.8599 41.1357 35.1063 40.4222 35.1517 39.652L35.3371 36.5L43.1996 44.3625ZM46.4109 7.78127C47.4079 7.78127 48.2191 8.59245 48.2191 9.58948C48.2191 10.5866 47.4079 11.3977 46.4109 11.3977C45.4138 11.3977 44.6026 10.5866 44.6026 9.58948C44.6026 8.59245 45.4138 7.78127 46.4109 7.78127ZM43.6031 11.5939C44.0477 12.2149 44.6924 12.6827 45.4426 12.9024L36.1804 22.1646L36.2477 21.0214C36.326 19.6896 36.0894 18.3957 35.5707 17.2167L43.6031 11.5939ZM23.1849 15.9962C23.3404 15.8312 23.5028 15.6756 23.6713 15.5292V17.4797C23.6713 17.9336 24.0393 18.3016 24.4932 18.3016C24.9471 18.3016 25.3151 17.9336 25.3151 17.4797V14.8497C25.3151 14.7307 25.2892 14.6179 25.2438 14.5157C26.0953 14.1254 27.0289 13.9182 27.9999 13.9182C28.971 13.9182 29.9046 14.1254 30.7562 14.5157C30.7106 14.6179 30.6849 14.7307 30.6849 14.8497V17.4797C30.6849 17.9336 31.0528 18.3016 31.5068 18.3016C31.9607 18.3016 32.3287 17.9336 32.3287 17.4797V15.5292C32.4971 15.6756 32.6595 15.8312 32.815 15.9962C34.0785 17.3361 34.7147 19.0865 34.6065 20.9249L33.5106 39.5553C33.4598 40.4202 33.0009 41.1702 32.3287 41.6238V20.9867C32.3287 20.5328 31.9607 20.1648 31.5068 20.1648C31.0528 20.1648 30.6849 20.5328 30.6849 20.9867V42.0278C30.6849 42.0463 30.6864 42.0644 30.6876 42.0826H25.3123C25.3135 42.0644 25.315 42.0463 25.315 42.0278V20.9867C25.315 20.5328 24.947 20.1648 24.4931 20.1648C24.0392 20.1648 23.6712 20.5328 23.6712 20.9867V41.6238C22.9989 41.1702 22.5402 40.4202 22.4892 39.5553L21.3934 20.9249C21.2852 19.0865 21.9215 17.3361 23.1849 15.9962ZM9.589 7.78127C10.586 7.78127 11.3972 8.59245 11.3972 9.58948C11.3972 10.5866 10.586 11.3977 9.589 11.3977C8.59196 11.3977 7.78078 10.5866 7.78078 9.58948C7.78078 8.59245 8.59196 7.78127 9.589 7.78127ZM10.5573 12.9024C11.3076 12.6827 11.9523 12.2149 12.3969 11.5939L20.4294 17.2167C19.9106 18.3957 19.674 19.6896 19.7524 21.0214L19.8197 22.1646L10.5573 12.9024ZM20.663 36.4999L20.8484 39.6519C20.8937 40.4221 21.1401 41.1357 21.5336 41.7437L13.0387 46.3179C13.0214 45.6699 12.8248 45.0661 12.4966 44.554C12.6074 44.5144 12.7116 44.4511 12.8004 44.3624L20.663 36.4999ZM9.589 48.2196C8.59196 48.2196 7.78078 47.4085 7.78078 46.4113C7.78078 45.4143 8.59196 44.6031 9.589 44.6031C10.586 44.6031 11.3972 45.4143 11.3972 46.4113C11.3972 47.4085 10.586 48.2196 9.589 48.2196ZM46.4109 48.2196C45.4138 48.2196 44.6026 47.4085 44.6026 46.4113C44.6026 45.4143 45.4138 44.6031 46.4109 44.6031C47.4079 44.6031 48.2191 45.4143 48.2191 46.4113C48.2191 47.4085 47.4079 48.2196 46.4109 48.2196Z" fill="#2A7AC0"/>
    <path d="M46.4098 45.5894C46.1939 45.5894 45.9813 45.677 45.829 45.8305C45.6756 45.9828 45.5879 46.1954 45.5879 46.4113C45.5879 46.6272 45.6756 46.8398 45.829 46.9921C45.9813 47.1455 46.1939 47.2332 46.4098 47.2332C46.6257 47.2332 46.8383 47.1455 46.9906 46.9921C47.1441 46.8398 47.2317 46.6272 47.2317 46.4113C47.2317 46.1954 47.1441 45.9828 46.9906 45.8305C46.8383 45.677 46.6257 45.5894 46.4098 45.5894Z" fill="#2A7AC0"/>
    <path d="M46.4098 10.4109C46.6257 10.4109 46.8383 10.3233 46.9906 10.1698C47.1441 10.0175 47.2317 9.8049 47.2317 9.58901C47.2317 9.37312 47.1441 9.16051 46.9906 9.00818C46.8383 8.85476 46.6257 8.76709 46.4098 8.76709C46.1939 8.76709 45.9813 8.85476 45.829 9.00818C45.6756 9.16051 45.5879 9.37312 45.5879 9.58901C45.5879 9.8049 45.6756 10.0175 45.829 10.1698C45.9813 10.3233 46.1939 10.4109 46.4098 10.4109Z" fill="#2A7AC0"/>
    <path d="M9.58949 10.4109C9.80538 10.4109 10.018 10.3233 10.1703 10.1698C10.3237 10.0175 10.4114 9.8049 10.4114 9.58901C10.4114 9.37312 10.3237 9.16051 10.1703 9.00818C10.018 8.85476 9.80538 8.76709 9.58949 8.76709C9.37251 8.76709 9.161 8.85476 9.00867 9.00818C8.85525 9.16051 8.76758 9.37312 8.76758 9.58901C8.76758 9.8049 8.85525 10.0175 9.00867 10.1698C9.161 10.3233 9.37251 10.4109 9.58949 10.4109Z" fill="#2A7AC0"/>
    <path d="M27.9997 40.2193C28.4536 40.2193 28.8216 39.8514 28.8216 39.3974V36.7672C28.8216 36.3133 28.4536 35.9453 27.9997 35.9453C27.5457 35.9453 27.1777 36.3133 27.1777 36.7672V39.3974C27.1777 39.8514 27.5457 40.2193 27.9997 40.2193Z" fill="#2A7AC0"/>
    </g>
    <defs>
    <clipPath id="clip0_49_962">
    <rect width="56" height="56" fill="white"/>
    </clipPath>
    </defs>
    </svg>
    