<?xml version="1.0" standalone="no"?>
<!DOCTYPE svg PUBLIC "-//W3C//DTD SVG 20010904//EN"
 "http://www.w3.org/TR/2001/REC-SVG-20010904/DTD/svg10.dtd">
<svg version="1.0" xmlns="http://www.w3.org/2000/svg"
 width="285.000000pt" height="165.000000pt" viewBox="0 0 285.000000 165.000000"
 preserveAspectRatio="xMidYMid meet">

<g transform="translate(0.000000,165.000000) scale(0.100000,-0.100000)"
fill="#000000" stroke="none">
<path d="M1351 1613 c-6 -21 -35 -148 -66 -283 -81 -353 -142 -597 -161 -635
-28 -60 -54 -65 -313 -65 -218 0 -232 1 -251 20 -11 11 -20 28 -20 38 0 24 65
309 79 343 21 56 36 59 267 59 l212 0 26 110 c14 61 26 113 26 115 0 3 -177 5
-393 5 -434 0 -460 -3 -529 -60 -43 -35 -51 -66 -17 -57 16 4 19 3 11 -5 -6
-6 -22 -10 -36 -10 -30 0 -44 -31 -26 -53 10 -12 8 -15 -10 -15 -19 0 -22 -4
-17 -26 2 -14 -1 -31 -9 -39 -18 -18 -113 -394 -120 -475 -6 -74 11 -119 59
-154 28 -21 40 -21 610 -24 619 -3 672 0 758 43 90 46 117 102 174 355 20 91
72 315 116 498 43 183 79 337 79 342 0 6 -84 10 -220 10 l-219 0 -10 -37z
m-1047 -361 c3 -5 -14 -9 -37 -9 -38 -1 -39 0 -12 7 43 11 43 11 49 2z m189
-56 c4 -11 -1 -14 -21 -11 -38 4 -39 4 -22 15 21 14 37 12 43 -4z"/>
<path d="M1855 1308 c-3 -7 -14 -56 -25 -107 -12 -52 -57 -237 -100 -410 -87
-342 -97 -367 -175 -421 -83 -57 -112 -63 -329 -69 l-199 -6 -44 -130 c-24
-72 -46 -138 -49 -147 -5 -17 16 -18 348 -18 380 0 431 5 526 54 129 66 225
202 272 386 12 46 52 216 90 379 37 163 71 308 75 323 7 26 6 27 -37 23 -23
-2 -62 -7 -85 -10 -46 -6 -52 -1 -27 26 12 14 22 15 50 7 32 -8 38 -6 70 21
19 17 39 31 43 31 5 0 12 11 15 24 3 13 9 31 12 40 6 14 -16 16 -210 16 -164
0 -218 -3 -221 -12z"/>
<path d="M2410 1303 c0 -10 -23 -112 -51 -228 -61 -252 -159 -666 -159 -672 0
-2 98 -2 217 -1 l218 3 22 95 c21 92 42 181 138 603 25 110 45 203 45 208 0 5
-93 9 -215 9 -198 0 -215 -1 -215 -17z"/>
</g>
</svg>
