<svg width="56" height="56" viewBox="0 0 56 56" fill="none" xmlns="http://www.w3.org/2000/svg">
<g clip-path="url(#clip0_49_972)">
<path d="M52.4722 38.4893H52.4818C52.9648 38.4893 53.3516 38.8804 53.3516 39.3643C53.3516 39.8481 52.9561 40.2393 52.4722 40.2393C51.9892 40.2393 51.5972 39.8481 51.5972 39.3643C51.5972 38.8804 51.9892 38.4893 52.4722 38.4893Z" fill="#2A7AC0"/>
<path d="M52.498 37.6143C52.0142 37.6143 51.623 37.2231 51.623 36.7393V34.1143C51.623 33.6304 52.0142 33.2393 52.498 33.2393C52.9819 33.2393 53.373 33.6304 53.373 34.1143V36.7393C53.373 37.2231 52.9819 37.6143 52.498 37.6143Z" fill="#2A7AC0"/>
<path d="M55.9954 26.2289C55.9954 26.2324 55.998 26.2359 55.998 26.2402V50.7402C55.998 53.6356 53.6434 55.9902 50.748 55.9902H6.12654C2.74992 55.9902 0.00154495 53.2419 0.00154495 49.8652V46.3652V30.6152V27.1152C0.00154495 23.7386 2.74992 20.9902 6.12654 20.9902H8.74979H49.873H50.7463C53.6382 20.9894 55.9893 23.3387 55.9954 26.2289ZM6.12654 54.2394H50.748C52.5269 54.2394 53.9829 52.9024 54.2034 51.1821C53.2785 51.9932 52.071 52.4894 50.748 52.4894H49.873H8.74979H6.12654C4.45879 52.4894 2.94505 51.8165 1.83905 50.7306C2.24242 52.73 4.0108 54.2394 6.12654 54.2394ZM1.75154 27.1144V30.6144V46.3644C1.75154 48.7767 3.71417 50.7394 6.12654 50.7394H7.87305V36.7394V22.7394H6.12654C3.71417 22.7394 1.75154 24.702 1.75154 27.1144ZM9.62479 50.7394H48.9963V22.7394H9.62479V50.7394ZM50.748 22.7394V50.7394C52.6783 50.7394 54.248 49.1696 54.248 47.2394V26.2481C54.248 26.2446 54.2463 26.2429 54.2463 26.2394C54.2463 24.31 52.6774 22.7402 50.748 22.7394Z" fill="#2A7AC0"/>
<path d="M5.24805 39.3643C3.8008 39.3643 2.62305 38.1865 2.62305 36.7393C2.62305 35.292 3.8008 34.1143 5.24805 34.1143C6.6953 34.1143 7.87305 35.292 7.87305 36.7393C7.87305 38.1865 6.6953 39.3643 5.24805 39.3643ZM5.24805 35.8643C4.76505 35.8643 4.37305 36.2563 4.37305 36.7393C4.37305 37.2223 4.76505 37.6143 5.24805 37.6143C5.73105 37.6143 6.12305 37.2223 6.12305 36.7393C6.12305 36.2563 5.73105 35.8643 5.24805 35.8643Z" fill="#2A7AC0"/>
<path d="M23.625 47.234H20.125C19.6411 47.234 19.25 46.8429 19.25 46.359V42.8643C19.25 42.3804 19.6411 41.9893 20.125 41.9893C20.6089 41.9893 21 42.3804 21 42.8643V45.484H23.625C24.1089 45.484 24.5 45.8751 24.5 46.359C24.5 46.8429 24.1089 47.234 23.625 47.234Z" fill="#2A7AC0"/>
<path d="M23.625 27.9893H21V30.6142C21 31.0981 20.6089 31.4892 20.125 31.4892C19.6411 31.4892 19.25 31.0981 19.25 30.6142V27.1143C19.25 26.6304 19.6411 26.2393 20.125 26.2393H23.625C24.1089 26.2393 24.5 26.6304 24.5 27.1143C24.5 27.5981 24.1089 27.9893 23.625 27.9893Z" fill="#2A7AC0"/>
<path d="M39.375 31.4892C38.8911 31.4892 38.5 31.0981 38.5 30.6142V27.9893H35.875C35.3911 27.9893 35 27.5981 35 27.1143C35 26.6304 35.3911 26.2393 35.875 26.2393H39.375C39.8589 26.2393 40.25 26.6304 40.25 27.1143V30.6142C40.25 31.0981 39.8589 31.4892 39.375 31.4892Z" fill="#2A7AC0"/>
<path d="M39.375 47.234H35.875C35.3911 47.234 35 46.8429 35 46.359C35 45.8751 35.3911 45.484 35.875 45.484H38.5V42.8643C38.5 42.3804 38.8911 41.9893 39.375 41.9893C39.8589 41.9893 40.25 42.3804 40.25 42.8643V46.359C40.25 46.8429 39.8589 47.234 39.375 47.234Z" fill="#2A7AC0"/>
<path d="M32.375 37.6143H30.625V39.3643C30.625 39.8481 30.2339 40.2393 29.75 40.2393C29.2661 40.2393 28.875 39.8481 28.875 39.3643V37.6143H27.125C26.6411 37.6143 26.25 37.2231 26.25 36.7393C26.25 36.2554 26.6411 35.8643 27.125 35.8643H28.875V34.1143C28.875 33.6304 29.2661 33.2393 29.75 33.2393C30.2339 33.2393 30.625 33.6304 30.625 34.1143V35.8643H32.375C32.8589 35.8643 33.25 36.2554 33.25 36.7393C33.25 37.2231 32.8589 37.6143 32.375 37.6143Z" fill="#2A7AC0"/>
<path d="M14 41.1125C12.5528 41.1125 11.375 39.9348 11.375 38.4875V34.9893C11.375 33.542 12.5528 32.3643 14 32.3643C15.4473 32.3643 16.625 33.542 16.625 34.9893V38.4875C16.625 39.9356 15.4473 41.1125 14 41.1125ZM14 39.3625C14.483 39.3625 14.875 38.9705 14.875 38.4875V37.4524C14.6003 37.5504 14.3089 37.6143 14 37.6143C13.6911 37.6143 13.3997 37.5513 13.125 37.4524V38.4875C13.125 38.9705 13.517 39.3625 14 39.3625ZM14 34.1143C13.517 34.1143 13.125 34.5063 13.125 34.9893C13.125 35.4723 13.517 35.8643 14 35.8643C14.483 35.8643 14.875 35.4723 14.875 34.9893C14.875 34.5063 14.483 34.1143 14 34.1143Z" fill="#2A7AC0"/>
<path d="M44.625 41.1125C43.1778 41.1125 42 39.9348 42 38.4875V34.9893C42 33.542 43.1778 32.3643 44.625 32.3643C46.0723 32.3643 47.25 33.542 47.25 34.9893V38.4875C47.25 39.9356 46.0723 41.1125 44.625 41.1125ZM44.625 39.3625C45.108 39.3625 45.5 38.9705 45.5 38.4875V37.4524C45.2253 37.5504 44.9339 37.6143 44.625 37.6143C44.3161 37.6143 44.0247 37.5513 43.75 37.4524V38.4875C43.75 38.9705 44.142 39.3625 44.625 39.3625ZM44.625 34.1143C44.142 34.1143 43.75 34.5063 43.75 34.9893C43.75 35.4723 44.142 35.8643 44.625 35.8643C45.108 35.8643 45.5 35.4723 45.5 34.9893C45.5 34.5063 45.108 34.1143 44.625 34.1143Z" fill="#2A7AC0"/>
<path d="M38.4963 2.63574C38.0124 2.63574 37.6213 2.24462 37.6213 1.76074C37.6213 1.27687 38.0124 0.885742 38.4963 0.885742H44.623C44.623 0.401867 45.0142 0.0107422 45.498 0.0107422C45.9819 0.0107422 46.373 0.401867 46.373 0.885742H52.498C52.9819 0.885742 53.373 1.27687 53.373 1.76074C53.373 2.24462 52.9819 2.63574 52.498 2.63574H46.373V5.26249H48.1239C48.6078 5.26249 48.9989 5.65362 48.9989 6.13749V12.2625C48.9989 12.7464 48.6078 13.1375 48.1239 13.1375H42.8722C42.3883 13.1375 41.9972 12.7464 41.9972 12.2625V11.3875H37.6222V14.8875C37.6222 15.3714 37.231 15.7625 36.7472 15.7625H35.8722V17.509C35.8722 17.9929 35.481 18.384 34.9972 18.384H30.6222C30.1383 18.384 29.7472 17.9929 29.7472 17.509V15.7625H26.2524V17.509C26.2524 17.9929 25.8613 18.384 25.3774 18.384H21.0024C20.5185 18.384 20.1274 17.9929 20.1274 17.509V15.7625H19.2524C18.7685 15.7625 18.3774 15.3714 18.3774 14.8875V11.3875H14.0033V12.2625C14.0033 12.7464 13.6122 13.1375 13.1283 13.1375H7.87654C7.39267 13.1375 7.00154 12.7464 7.00154 12.2625V6.13749C7.00154 5.65362 7.39267 5.26249 7.87654 5.26249H9.62742V2.63574H3.50242C3.01854 2.63574 2.62742 2.24462 2.62742 1.76074C2.62742 1.27687 3.01854 0.885742 3.50242 0.885742H9.62742C9.62742 0.401867 10.0185 0.0107422 10.5024 0.0107422C10.9863 0.0107422 11.3774 0.401867 11.3774 0.885742H17.5042C17.988 0.885742 18.3792 1.27687 18.3792 1.76074C18.3792 2.24462 17.988 2.63574 17.5042 2.63574H11.3774V5.26249H13.1283C13.6122 5.26249 14.0033 5.65362 14.0033 6.13749V7.01424H18.3774V7.01074C18.3774 4.59837 20.34 2.63574 22.7524 2.63574H33.2472C35.6595 2.63574 37.6222 4.59837 37.6222 7.01074V7.01424H41.9972V6.13749C41.9972 5.65362 42.3883 5.26249 42.8722 5.26249H44.623V2.63574H38.4963ZM35.8722 14.0125V13.134H20.1274V14.0125H35.8722ZM31.4972 16.634H34.1222V15.7625H31.4972V16.634ZM21.8774 16.634H24.5024V15.7625H21.8774V16.634ZM12.2533 7.01249H8.75154V11.3875H12.2533V7.01249ZM14.0033 8.76424V9.63749H18.3774V8.76424H14.0033ZM31.498 6.13749V4.38574H24.5015V6.13749H31.498ZM33.248 4.38574V7.01249C33.248 7.49637 32.8569 7.88749 32.373 7.88749H23.6265C23.1427 7.88749 22.7515 7.49637 22.7515 7.01249V4.38574C21.3043 4.38662 20.1274 5.56349 20.1274 7.01074V11.384H35.8722V7.01074C35.8722 5.56262 34.6953 4.38662 33.248 4.38574ZM37.6222 8.76424V9.63749H41.9972V8.76424H37.6222ZM43.7472 11.3875H47.2489V7.01249H43.7472V11.3875Z" fill="#2A7AC0"/>
</g>
<defs>
<clipPath id="clip0_49_972">
<rect width="56" height="56" fill="white" transform="matrix(-1 0 0 1 56 0)"/>
</clipPath>
</defs>
</svg>
