
<svg version="1.0" xmlns="http://www.w3.org/2000/svg"
 width="860.000000pt" height="379.000000pt" viewBox="0 0 860.000000 379.000000"
 preserveAspectRatio="xMidYMid meet">
    <!-- <defs>
        <mask id="mask"> -->
            <g transform="translate(0.000000,379.000000) scale(0.100000,-0.100000)"
            fill="#000000" stroke="none">
            <path d="M314 3369 c-17 -19 -17 -23 -3 -47 8 -15 163 -289 344 -610 180 -320
            332 -579 336 -575 8 9 318 559 325 577 3 8 -79 162 -181 345 l-187 331 -307 0
            c-299 0 -308 -1 -327 -21z"/>
            <path d="M1192 1805 c-774 -1373 -892 -1587 -882 -1605 11 -20 18 -20 328 -18
            l316 3 277 489 c152 270 280 491 285 493 5 2 135 -220 288 -492 l279 -495 312
            0 c316 0 335 2 335 38 0 7 -80 156 -179 330 -98 174 -294 521 -435 771 -141
            250 -256 458 -256 463 0 4 196 355 435 779 239 424 435 779 435 789 0 11 -9
            24 -19 30 -13 6 -132 10 -323 10 l-303 -1 -893 -1584z"/>
            <path d="M3987 3376 c-52 -19 -83 -50 -100 -100 -266 -754 -707 -2031 -705
            -2037 2 -4 60 29 129 75 163 106 356 209 541 287 l147 62 87 251 c139 399 168
            478 178 480 5 0 55 -132 112 -294 70 -201 106 -294 115 -293 8 1 64 11 124 23
            133 24 357 50 443 50 34 0 62 4 62 10 0 15 -480 1391 -496 1422 -7 14 -30 37
            -51 50 -37 22 -45 23 -293 25 -199 2 -264 0 -293 -11z"/>
            <path d="M6602 3380 c-192 -26 -356 -112 -494 -258 -83 -88 -138 -180 -180
            -302 l-33 -95 0 -940 0 -940 23 -75 c75 -237 226 -412 445 -515 148 -71 143
            -70 732 -70 528 0 530 0 605 23 265 84 467 277 551 527 43 128 51 250 47 755
            -3 424 -4 447 -23 479 -11 19 -33 43 -48 55 -28 21 -38 21 -550 24 l-522 3
            -134 -236 c-73 -130 -136 -245 -138 -256 -13 -49 -9 -49 424 -49 l404 0 -3
            -272 -3 -273 -28 -57 c-34 -69 -92 -129 -155 -160 -46 -23 -53 -23 -420 -26
            l-373 -3 -60 27 c-72 33 -148 111 -175 181 -17 45 -19 99 -22 813 -3 797 -1
            854 39 932 29 57 93 116 158 147 l56 26 365 0 365 0 55 -26 c31 -14 72 -40 92
            -58 38 -33 98 -139 98 -173 0 -17 15 -18 298 -18 l298 0 -8 82 c-33 338 -273
            616 -613 710 -77 21 -100 22 -545 24 -256 1 -493 -2 -528 -6z"/>
            <path d="M4986 1764 c-767 -120 -1459 -535 -1922 -1154 -96 -128 -244 -366
            -244 -391 0 -37 17 -39 350 -39 l326 0 30 62 c16 34 60 114 97 178 331 559
            856 1008 1457 1245 52 21 98 39 102 41 3 2 1 20 -5 39 -10 34 -12 35 -56 34
            -25 -1 -86 -7 -135 -15z"/>
            <path d="M5120 1559 c-124 -54 -266 -135 -373 -215 l-87 -63 59 -168 c32 -93
            118 -340 191 -551 l133 -382 326 2 326 3 3 23 c3 22 -468 1392 -478 1392 -3 0
            -48 -19 -100 -41z"/>
            </g>
        <!-- </mask>
    </defs> -->
</svg>
