<svg width="0" height="0" class="hidden">
    <symbol fill="none" xmlns="http://www.w3.org/2000/svg" viewBox="0 0 40 35" id="burger">
      <path d="M0.300781 0.293152V5.22826H39.7817V0.293152H0.300781ZM0.300781 14.9504V19.8855H39.7817V14.9504H0.300781ZM0.300781 29.7558V34.6909H39.7817V29.7558H0.300781Z" fill="white"></path>
    </symbol>
    <symbol fill="none" xmlns="http://www.w3.org/2000/svg" viewBox="0 0 56 56" id="controller">
      <path d="M26.25 44.625C26.25 45.4903 26.5066 46.3362 26.9873 47.0556C27.4681 47.7751 28.1513 48.3358 28.9508 48.667C29.7502 48.9981 30.6299 49.0848 31.4785 48.9159C32.3272 48.7471 33.1067 48.3305 33.7186 47.7186C34.3305 47.1067 34.7471 46.3272 34.9159 45.4785C35.0848 44.6299 34.9981 43.7502 34.667 42.9508C34.3358 42.1513 33.7751 41.4681 33.0556 40.9873C32.3362 40.5066 31.4903 40.25 30.625 40.25C29.4651 40.2514 28.3531 40.7128 27.5329 41.5329C26.7128 42.3531 26.2514 43.4651 26.25 44.625ZM33.25 44.625C33.25 45.1442 33.0961 45.6517 32.8076 46.0834C32.5192 46.5151 32.1092 46.8515 31.6295 47.0502C31.1499 47.2489 30.6221 47.3009 30.1129 47.1996C29.6037 47.0983 29.136 46.8483 28.7688 46.4812C28.4017 46.114 28.1517 45.6463 28.0504 45.1371C27.9492 44.6279 28.0011 44.1001 28.1998 43.6205C28.3985 43.1408 28.735 42.7308 29.1666 42.4424C29.5983 42.154 30.1058 42 30.625 42C31.3212 42 31.9889 42.2766 32.4812 42.7688C32.9734 43.2611 33.25 43.9288 33.25 44.625Z" fill="#2A7AC0"></path>
      <path d="M54.25 19.25V17.5H48.125V16.625H46.375V17.5H40.25V19.25H46.375V21H44.625C44.3929 21 44.1704 21.0922 44.0063 21.2563C43.8422 21.4204 43.75 21.6429 43.75 21.875V23.94L40.8975 23.6775L40.2062 21.595C40.146 21.4222 40.0337 21.2723 39.8849 21.1658C39.7361 21.0592 39.558 21.0013 39.375 21H26.25V6.125C26.2479 5.42945 25.9707 4.76297 25.4789 4.27114C24.987 3.77931 24.3206 3.50208 23.625 3.5H7.875C7.17945 3.50208 6.51297 3.77931 6.02114 4.27114C5.52931 4.76297 5.25208 5.42945 5.25 6.125V12.9588L1.93375 21.2362C1.81232 21.5457 1.74999 21.8751 1.75 22.2075V31.2112C1.7505 32.1578 2.05748 33.0787 2.625 33.8362L3.2025 34.6062C3.56283 35.0881 3.82022 35.6389 3.95871 36.2245C4.09719 36.81 4.1138 37.4178 4.0075 38.01L2.625 52.4125C2.61483 52.5344 2.62977 52.6571 2.6689 52.773C2.70803 52.8888 2.77052 52.9955 2.8525 53.0863C2.93431 53.1769 3.03418 53.2494 3.1457 53.2991C3.25721 53.3489 3.3779 53.3747 3.5 53.375H13.125C13.2471 53.3747 13.3678 53.3489 13.4793 53.2991C13.5908 53.2494 13.6907 53.1769 13.7725 53.0863C13.8545 52.994 13.9163 52.8857 13.954 52.7681C13.9917 52.6506 14.0044 52.5265 13.9913 52.4037L12.3638 37.2925C12.3226 37.0678 12.3696 36.8359 12.495 36.645L13.0112 35.875H23.625C23.9921 35.8738 24.3548 35.7952 24.6895 35.6445C25.0242 35.4937 25.3234 35.2741 25.5675 35H28V37.625H23.625C22.9294 37.6271 22.263 37.9043 21.7711 38.3961C21.2793 38.888 21.0021 39.5544 21 40.25V49C21.0021 49.6956 21.2793 50.362 21.7711 50.8539C22.263 51.3457 22.9294 51.6229 23.625 51.625H37.625C38.3206 51.6229 38.987 51.3457 39.4789 50.8539C39.9707 50.362 40.2479 49.6956 40.25 49V40.25C40.2479 39.5544 39.9707 38.888 39.4789 38.3961C38.987 37.9043 38.3206 37.6271 37.625 37.625H33.25V35H39.375C39.5704 34.9998 39.7602 34.9343 39.914 34.8138C40.0678 34.6932 40.1769 34.5247 40.2238 34.335L40.95 31.4388L43.75 31.185V31.5C43.75 32.4283 44.1188 33.3185 44.7751 33.9749C45.4315 34.6313 46.3217 35 47.25 35C48.1783 35 49.0685 34.6313 49.7249 33.9749C50.3812 33.3185 50.75 32.4283 50.75 31.5V21.875C50.75 21.6429 50.6578 21.4204 50.4937 21.2563C50.3296 21.0922 50.1071 21 49.875 21H48.125V19.25H54.25ZM10.7537 29.4963L11.2262 29.96C11.5512 30.2853 11.8088 30.6714 11.9845 31.0963C12.1601 31.5212 12.2504 31.9765 12.25 32.4362V32.8038C12.251 33.495 12.047 34.171 11.6637 34.7463L11.0425 35.6738C10.6681 36.2178 10.5206 36.8864 10.6312 37.5375L12.1538 51.625H4.4625L5.74 38.2375C5.87666 37.4208 5.84632 36.5849 5.65081 35.7803C5.4553 34.9757 5.09868 34.2191 4.6025 33.5562L4.025 32.7863C3.68523 32.3313 3.50113 31.779 3.5 31.2112V22.2075C3.49909 22.0966 3.5199 21.9866 3.56125 21.8838L5.25 17.6663V23.2663C5.25015 23.4958 5.29586 23.7231 5.38448 23.9349C5.4731 24.1466 5.60286 24.3387 5.76625 24.5L6.7725 25.515C7.0493 25.7886 7.40896 25.9628 7.79525 26.0102C8.18153 26.0577 8.57267 25.9759 8.9075 25.7775L11.6375 24.1325C11.7743 24.0536 11.9332 24.0221 12.0898 24.0427C12.2463 24.0633 12.3917 24.135 12.5033 24.2467C12.615 24.3583 12.6867 24.5037 12.7073 24.6602C12.7279 24.8168 12.6964 24.9757 12.6175 25.1125L10.6225 28.4288C10.5245 28.5965 10.4842 28.7918 10.5079 28.9847C10.5316 29.1775 10.618 29.3572 10.7537 29.4963ZM12.6 28.875C12.5562 28.8312 12.5212 28.7787 12.4775 28.735L14.1137 26.0138C14.3975 25.5431 14.5155 24.9909 14.4489 24.4454C14.3823 23.8998 14.1349 23.3923 13.7463 23.0037C13.3577 22.6151 12.8502 22.3677 12.3046 22.3011C11.7591 22.2345 11.2069 22.3525 10.7362 22.6363L10.5 22.7763V8.75H21V28.875H12.6ZM24.5 33.25C24.5 33.4821 24.4078 33.7046 24.2437 33.8687C24.0796 34.0328 23.8571 34.125 23.625 34.125H13.8162C13.9342 33.6944 13.996 33.2502 14 32.8038V32.4362C13.9992 31.8182 13.8896 31.2051 13.6763 30.625H21.875C22.1071 30.625 22.3296 30.5328 22.4937 30.3687C22.6578 30.2046 22.75 29.9821 22.75 29.75V7.875C22.75 7.64294 22.6578 7.42038 22.4937 7.25628C22.3296 7.09219 22.1071 7 21.875 7H9.625C9.39294 7 9.17038 7.09219 9.00628 7.25628C8.84219 7.42038 8.75 7.64294 8.75 7.875V23.8263L8.00625 24.2725L7 23.2663V6.125C7 5.89294 7.09219 5.67038 7.25628 5.50628C7.42038 5.34219 7.64294 5.25 7.875 5.25H23.625C23.8571 5.25 24.0796 5.34219 24.2437 5.50628C24.4078 5.67038 24.5 5.89294 24.5 6.125V33.25ZM37.625 39.375C37.8571 39.375 38.0796 39.4672 38.2437 39.6313C38.4078 39.7954 38.5 40.0179 38.5 40.25V49C38.5 49.2321 38.4078 49.4546 38.2437 49.6187C38.0796 49.7828 37.8571 49.875 37.625 49.875H23.625C23.3929 49.875 23.1704 49.7828 23.0063 49.6187C22.8422 49.4546 22.75 49.2321 22.75 49V40.25C22.75 40.0179 22.8422 39.7954 23.0063 39.6313C23.1704 39.4672 23.3929 39.375 23.625 39.375H37.625ZM29.75 37.625V35H31.5V37.625H29.75ZM43.75 29.435L40.1712 29.75C39.9896 29.7667 39.8177 29.8398 39.6797 29.9591C39.5416 30.0783 39.4443 30.2377 39.4012 30.415L38.6925 33.25H26.25V22.75H38.745L39.4188 24.78C39.4745 24.9405 39.575 25.0818 39.7083 25.1872C39.8416 25.2926 40.0022 25.3578 40.1712 25.375L43.75 25.69V29.435ZM49 22.75V31.5C49 31.9641 48.8156 32.4093 48.4874 32.7374C48.1592 33.0656 47.7141 33.25 47.25 33.25C46.7859 33.25 46.3408 33.0656 46.0126 32.7374C45.6844 32.4093 45.5 31.9641 45.5 31.5V22.75H49Z" fill="#2A7AC0"></path>
      <path d="M36.3877 12.7629C36.143 13.0076 35.9762 13.3194 35.9087 13.6589C35.8411 13.9984 35.8757 14.3503 36.0082 14.6701C36.1406 14.9899 36.3649 15.2632 36.6527 15.4555C36.9405 15.6478 37.2789 15.7505 37.625 15.7505C37.9711 15.7505 38.3095 15.6478 38.5973 15.4555C38.8851 15.2632 39.1094 14.9899 39.2418 14.6701C39.3743 14.3503 39.4089 13.9984 39.3413 13.6589C39.2738 13.3194 39.107 13.0076 38.8622 12.7629C38.5341 12.4348 38.089 12.2505 37.625 12.2505C37.161 12.2505 36.7159 12.4348 36.3877 12.7629Z" fill="#2A7AC0"></path>
      <path d="M41.3374 10.2885C40.8498 9.80089 40.271 9.4141 39.634 9.15021C38.997 8.88631 38.3142 8.75049 37.6247 8.75049C36.9352 8.75049 36.2525 8.88631 35.6154 9.15021C34.9784 9.4141 34.3996 9.80089 33.9121 10.2885L35.1494 11.5257C35.8166 10.8897 36.703 10.5349 37.6247 10.5349C38.5465 10.5349 39.4329 10.8897 40.1001 11.5257L41.3374 10.2885Z" fill="#2A7AC0"></path>
      <path d="M43.8118 7.81317C42.1696 6.17462 39.9445 5.25439 37.6246 5.25439C35.3048 5.25439 33.0797 6.17462 31.4375 7.81317L32.6747 9.05042C33.9886 7.73973 35.7688 7.00366 37.6246 7.00366C39.4805 7.00366 41.2606 7.73973 42.5745 9.05042L43.8118 7.81317Z" fill="#2A7AC0"></path>
      <path d="M37.6254 3.49991C39.0048 3.49599 40.3714 3.76582 41.6458 4.29376C42.9202 4.82171 44.0772 5.59727 45.0498 6.57553L46.2879 5.33741C45.1504 4.19976 43.7999 3.29732 42.3136 2.68162C40.8272 2.06592 39.2342 1.74902 37.6254 1.74902C36.0166 1.74902 34.4236 2.06592 32.9372 2.68162C31.4509 3.29732 30.1004 4.19976 28.9629 5.33741L30.2001 6.57466C31.1729 5.59645 32.3301 4.82098 33.6046 4.29319C34.8792 3.76539 36.2459 3.49576 37.6254 3.49991Z" fill="#2A7AC0"></path>
      <path d="M44.7744 36.5996L43.5371 37.8369C44.0246 38.3245 44.6034 38.7113 45.2404 38.9752C45.8775 39.239 46.5602 39.3749 47.2497 39.3749C47.9393 39.3749 48.622 39.239 49.259 38.9752C49.8961 38.7113 50.4748 38.3245 50.9624 37.8369L49.7251 36.5996C49.0579 37.2356 48.1715 37.5904 47.2497 37.5904C46.328 37.5904 45.4416 37.2356 44.7744 36.5996Z" fill="#2A7AC0"></path>
      <path d="M44.7744 40.0996L43.5371 41.3369C44.0246 41.8245 44.6034 42.2113 45.2404 42.4752C45.8775 42.739 46.5602 42.8749 47.2497 42.8749C47.9393 42.8749 48.622 42.739 49.259 42.4752C49.8961 42.2113 50.4748 41.8245 50.9624 41.3369L49.7251 40.0996C49.0579 40.7356 48.1715 41.0904 47.2497 41.0904C46.328 41.0904 45.4416 40.7356 44.7744 40.0996Z" fill="#2A7AC0"></path>
      <path d="M15.75 12.25C15.0578 12.25 14.3811 12.4553 13.8055 12.8399C13.2299 13.2244 12.7813 13.7711 12.5164 14.4106C12.2515 15.0501 12.1822 15.7539 12.3173 16.4328C12.4523 17.1117 12.7856 17.7354 13.2751 18.2249C13.7646 18.7144 14.3883 19.0477 15.0672 19.1827C15.7461 19.3178 16.4499 19.2485 17.0894 18.9836C17.7289 18.7187 18.2756 18.2701 18.6601 17.6945C19.0447 17.1189 19.25 16.4422 19.25 15.75C19.25 14.8217 18.8813 13.9315 18.2249 13.2751C17.5685 12.6187 16.6783 12.25 15.75 12.25ZM15.75 17.5C15.4039 17.5 15.0655 17.3974 14.7778 17.2051C14.49 17.0128 14.2657 16.7395 14.1332 16.4197C14.0008 16.0999 13.9661 15.7481 14.0336 15.4086C14.1012 15.0691 14.2678 14.7573 14.5126 14.5126C14.7573 14.2678 15.0691 14.1011 15.4086 14.0336C15.7481 13.9661 16.0999 14.0008 16.4197 14.1332C16.7395 14.2657 17.0128 14.49 17.2051 14.7778C17.3974 15.0655 17.5 15.4039 17.5 15.75C17.5 16.2141 17.3156 16.6592 16.9874 16.9874C16.6592 17.3156 16.2141 17.5 15.75 17.5Z" fill="#2A7AC0"></path>
    </symbol>
    <symbol fill="none" xmlns="http://www.w3.org/2000/svg" viewBox="0 0 56 56" id="drone-1">
      <g clip-path="url(#clip0_49_972)">
        <path d="M52.4722 38.4893H52.4818C52.9648 38.4893 53.3516 38.8804 53.3516 39.3643C53.3516 39.8481 52.9561 40.2393 52.4722 40.2393C51.9892 40.2393 51.5972 39.8481 51.5972 39.3643C51.5972 38.8804 51.9892 38.4893 52.4722 38.4893Z" fill="#2A7AC0"></path>
        <path d="M52.498 37.6143C52.0142 37.6143 51.623 37.2231 51.623 36.7393V34.1143C51.623 33.6304 52.0142 33.2393 52.498 33.2393C52.9819 33.2393 53.373 33.6304 53.373 34.1143V36.7393C53.373 37.2231 52.9819 37.6143 52.498 37.6143Z" fill="#2A7AC0"></path>
        <path d="M55.9954 26.2289C55.9954 26.2324 55.998 26.2359 55.998 26.2402V50.7402C55.998 53.6356 53.6434 55.9902 50.748 55.9902H6.12654C2.74992 55.9902 0.00154495 53.2419 0.00154495 49.8652V46.3652V30.6152V27.1152C0.00154495 23.7386 2.74992 20.9902 6.12654 20.9902H8.74979H49.873H50.7463C53.6382 20.9894 55.9893 23.3387 55.9954 26.2289ZM6.12654 54.2394H50.748C52.5269 54.2394 53.9829 52.9024 54.2034 51.1821C53.2785 51.9932 52.071 52.4894 50.748 52.4894H49.873H8.74979H6.12654C4.45879 52.4894 2.94505 51.8165 1.83905 50.7306C2.24242 52.73 4.0108 54.2394 6.12654 54.2394ZM1.75154 27.1144V30.6144V46.3644C1.75154 48.7767 3.71417 50.7394 6.12654 50.7394H7.87305V36.7394V22.7394H6.12654C3.71417 22.7394 1.75154 24.702 1.75154 27.1144ZM9.62479 50.7394H48.9963V22.7394H9.62479V50.7394ZM50.748 22.7394V50.7394C52.6783 50.7394 54.248 49.1696 54.248 47.2394V26.2481C54.248 26.2446 54.2463 26.2429 54.2463 26.2394C54.2463 24.31 52.6774 22.7402 50.748 22.7394Z" fill="#2A7AC0"></path>
        <path d="M5.24805 39.3643C3.8008 39.3643 2.62305 38.1865 2.62305 36.7393C2.62305 35.292 3.8008 34.1143 5.24805 34.1143C6.6953 34.1143 7.87305 35.292 7.87305 36.7393C7.87305 38.1865 6.6953 39.3643 5.24805 39.3643ZM5.24805 35.8643C4.76505 35.8643 4.37305 36.2563 4.37305 36.7393C4.37305 37.2223 4.76505 37.6143 5.24805 37.6143C5.73105 37.6143 6.12305 37.2223 6.12305 36.7393C6.12305 36.2563 5.73105 35.8643 5.24805 35.8643Z" fill="#2A7AC0"></path>
        <path d="M23.625 47.234H20.125C19.6411 47.234 19.25 46.8429 19.25 46.359V42.8643C19.25 42.3804 19.6411 41.9893 20.125 41.9893C20.6089 41.9893 21 42.3804 21 42.8643V45.484H23.625C24.1089 45.484 24.5 45.8751 24.5 46.359C24.5 46.8429 24.1089 47.234 23.625 47.234Z" fill="#2A7AC0"></path>
        <path d="M23.625 27.9893H21V30.6142C21 31.0981 20.6089 31.4892 20.125 31.4892C19.6411 31.4892 19.25 31.0981 19.25 30.6142V27.1143C19.25 26.6304 19.6411 26.2393 20.125 26.2393H23.625C24.1089 26.2393 24.5 26.6304 24.5 27.1143C24.5 27.5981 24.1089 27.9893 23.625 27.9893Z" fill="#2A7AC0"></path>
        <path d="M39.375 31.4892C38.8911 31.4892 38.5 31.0981 38.5 30.6142V27.9893H35.875C35.3911 27.9893 35 27.5981 35 27.1143C35 26.6304 35.3911 26.2393 35.875 26.2393H39.375C39.8589 26.2393 40.25 26.6304 40.25 27.1143V30.6142C40.25 31.0981 39.8589 31.4892 39.375 31.4892Z" fill="#2A7AC0"></path>
        <path d="M39.375 47.234H35.875C35.3911 47.234 35 46.8429 35 46.359C35 45.8751 35.3911 45.484 35.875 45.484H38.5V42.8643C38.5 42.3804 38.8911 41.9893 39.375 41.9893C39.8589 41.9893 40.25 42.3804 40.25 42.8643V46.359C40.25 46.8429 39.8589 47.234 39.375 47.234Z" fill="#2A7AC0"></path>
        <path d="M32.375 37.6143H30.625V39.3643C30.625 39.8481 30.2339 40.2393 29.75 40.2393C29.2661 40.2393 28.875 39.8481 28.875 39.3643V37.6143H27.125C26.6411 37.6143 26.25 37.2231 26.25 36.7393C26.25 36.2554 26.6411 35.8643 27.125 35.8643H28.875V34.1143C28.875 33.6304 29.2661 33.2393 29.75 33.2393C30.2339 33.2393 30.625 33.6304 30.625 34.1143V35.8643H32.375C32.8589 35.8643 33.25 36.2554 33.25 36.7393C33.25 37.2231 32.8589 37.6143 32.375 37.6143Z" fill="#2A7AC0"></path>
        <path d="M14 41.1125C12.5528 41.1125 11.375 39.9348 11.375 38.4875V34.9893C11.375 33.542 12.5528 32.3643 14 32.3643C15.4473 32.3643 16.625 33.542 16.625 34.9893V38.4875C16.625 39.9356 15.4473 41.1125 14 41.1125ZM14 39.3625C14.483 39.3625 14.875 38.9705 14.875 38.4875V37.4524C14.6003 37.5504 14.3089 37.6143 14 37.6143C13.6911 37.6143 13.3997 37.5513 13.125 37.4524V38.4875C13.125 38.9705 13.517 39.3625 14 39.3625ZM14 34.1143C13.517 34.1143 13.125 34.5063 13.125 34.9893C13.125 35.4723 13.517 35.8643 14 35.8643C14.483 35.8643 14.875 35.4723 14.875 34.9893C14.875 34.5063 14.483 34.1143 14 34.1143Z" fill="#2A7AC0"></path>
        <path d="M44.625 41.1125C43.1778 41.1125 42 39.9348 42 38.4875V34.9893C42 33.542 43.1778 32.3643 44.625 32.3643C46.0723 32.3643 47.25 33.542 47.25 34.9893V38.4875C47.25 39.9356 46.0723 41.1125 44.625 41.1125ZM44.625 39.3625C45.108 39.3625 45.5 38.9705 45.5 38.4875V37.4524C45.2253 37.5504 44.9339 37.6143 44.625 37.6143C44.3161 37.6143 44.0247 37.5513 43.75 37.4524V38.4875C43.75 38.9705 44.142 39.3625 44.625 39.3625ZM44.625 34.1143C44.142 34.1143 43.75 34.5063 43.75 34.9893C43.75 35.4723 44.142 35.8643 44.625 35.8643C45.108 35.8643 45.5 35.4723 45.5 34.9893C45.5 34.5063 45.108 34.1143 44.625 34.1143Z" fill="#2A7AC0"></path>
        <path d="M38.4963 2.63574C38.0124 2.63574 37.6213 2.24462 37.6213 1.76074C37.6213 1.27687 38.0124 0.885742 38.4963 0.885742H44.623C44.623 0.401867 45.0142 0.0107422 45.498 0.0107422C45.9819 0.0107422 46.373 0.401867 46.373 0.885742H52.498C52.9819 0.885742 53.373 1.27687 53.373 1.76074C53.373 2.24462 52.9819 2.63574 52.498 2.63574H46.373V5.26249H48.1239C48.6078 5.26249 48.9989 5.65362 48.9989 6.13749V12.2625C48.9989 12.7464 48.6078 13.1375 48.1239 13.1375H42.8722C42.3883 13.1375 41.9972 12.7464 41.9972 12.2625V11.3875H37.6222V14.8875C37.6222 15.3714 37.231 15.7625 36.7472 15.7625H35.8722V17.509C35.8722 17.9929 35.481 18.384 34.9972 18.384H30.6222C30.1383 18.384 29.7472 17.9929 29.7472 17.509V15.7625H26.2524V17.509C26.2524 17.9929 25.8613 18.384 25.3774 18.384H21.0024C20.5185 18.384 20.1274 17.9929 20.1274 17.509V15.7625H19.2524C18.7685 15.7625 18.3774 15.3714 18.3774 14.8875V11.3875H14.0033V12.2625C14.0033 12.7464 13.6122 13.1375 13.1283 13.1375H7.87654C7.39267 13.1375 7.00154 12.7464 7.00154 12.2625V6.13749C7.00154 5.65362 7.39267 5.26249 7.87654 5.26249H9.62742V2.63574H3.50242C3.01854 2.63574 2.62742 2.24462 2.62742 1.76074C2.62742 1.27687 3.01854 0.885742 3.50242 0.885742H9.62742C9.62742 0.401867 10.0185 0.0107422 10.5024 0.0107422C10.9863 0.0107422 11.3774 0.401867 11.3774 0.885742H17.5042C17.988 0.885742 18.3792 1.27687 18.3792 1.76074C18.3792 2.24462 17.988 2.63574 17.5042 2.63574H11.3774V5.26249H13.1283C13.6122 5.26249 14.0033 5.65362 14.0033 6.13749V7.01424H18.3774V7.01074C18.3774 4.59837 20.34 2.63574 22.7524 2.63574H33.2472C35.6595 2.63574 37.6222 4.59837 37.6222 7.01074V7.01424H41.9972V6.13749C41.9972 5.65362 42.3883 5.26249 42.8722 5.26249H44.623V2.63574H38.4963ZM35.8722 14.0125V13.134H20.1274V14.0125H35.8722ZM31.4972 16.634H34.1222V15.7625H31.4972V16.634ZM21.8774 16.634H24.5024V15.7625H21.8774V16.634ZM12.2533 7.01249H8.75154V11.3875H12.2533V7.01249ZM14.0033 8.76424V9.63749H18.3774V8.76424H14.0033ZM31.498 6.13749V4.38574H24.5015V6.13749H31.498ZM33.248 4.38574V7.01249C33.248 7.49637 32.8569 7.88749 32.373 7.88749H23.6265C23.1427 7.88749 22.7515 7.49637 22.7515 7.01249V4.38574C21.3043 4.38662 20.1274 5.56349 20.1274 7.01074V11.384H35.8722V7.01074C35.8722 5.56262 34.6953 4.38662 33.248 4.38574ZM37.6222 8.76424V9.63749H41.9972V8.76424H37.6222ZM43.7472 11.3875H47.2489V7.01249H43.7472V11.3875Z" fill="#2A7AC0"></path>
      </g>
      <defs>
        <clipPath id="clip0_49_972">
          <rect width="56" height="56" fill="white" transform="matrix(-1 0 0 1 56 0)"></rect>
        </clipPath>
      </defs>
    </symbol>
    <symbol fill="none" xmlns="http://www.w3.org/2000/svg" viewBox="0 0 56 56" id="control">
        <path d="M26.25 44.625C26.25 45.4903 26.5066 46.3362 26.9873 47.0556C27.4681 47.7751 28.1513 48.3358 28.9508 48.667C29.7502 48.9981 30.6299 49.0848 31.4785 48.9159C32.3272 48.7471 33.1067 48.3305 33.7186 47.7186C34.3305 47.1067 34.7471 46.3272 34.9159 45.4785C35.0848 44.6299 34.9981 43.7502 34.667 42.9508C34.3358 42.1513 33.7751 41.4681 33.0556 40.9873C32.3362 40.5066 31.4903 40.25 30.625 40.25C29.4651 40.2514 28.3531 40.7128 27.5329 41.5329C26.7128 42.3531 26.2514 43.4651 26.25 44.625ZM33.25 44.625C33.25 45.1442 33.0961 45.6517 32.8076 46.0834C32.5192 46.5151 32.1092 46.8515 31.6295 47.0502C31.1499 47.2489 30.6221 47.3009 30.1129 47.1996C29.6037 47.0983 29.136 46.8483 28.7688 46.4812C28.4017 46.114 28.1517 45.6463 28.0504 45.1371C27.9492 44.6279 28.0011 44.1001 28.1998 43.6205C28.3985 43.1408 28.735 42.7308 29.1666 42.4424C29.5983 42.154 30.1058 42 30.625 42C31.3212 42 31.9889 42.2766 32.4812 42.7688C32.9734 43.2611 33.25 43.9288 33.25 44.625Z" fill="#2A7AC0"/>
        <path d="M54.25 19.25V17.5H48.125V16.625H46.375V17.5H40.25V19.25H46.375V21H44.625C44.3929 21 44.1704 21.0922 44.0063 21.2563C43.8422 21.4204 43.75 21.6429 43.75 21.875V23.94L40.8975 23.6775L40.2062 21.595C40.146 21.4222 40.0337 21.2723 39.8849 21.1658C39.7361 21.0592 39.558 21.0013 39.375 21H26.25V6.125C26.2479 5.42945 25.9707 4.76297 25.4789 4.27114C24.987 3.77931 24.3206 3.50208 23.625 3.5H7.875C7.17945 3.50208 6.51297 3.77931 6.02114 4.27114C5.52931 4.76297 5.25208 5.42945 5.25 6.125V12.9588L1.93375 21.2362C1.81232 21.5457 1.74999 21.8751 1.75 22.2075V31.2112C1.7505 32.1578 2.05748 33.0787 2.625 33.8362L3.2025 34.6062C3.56283 35.0881 3.82022 35.6389 3.95871 36.2245C4.09719 36.81 4.1138 37.4178 4.0075 38.01L2.625 52.4125C2.61483 52.5344 2.62977 52.6571 2.6689 52.773C2.70803 52.8888 2.77052 52.9955 2.8525 53.0863C2.93431 53.1769 3.03418 53.2494 3.1457 53.2991C3.25721 53.3489 3.3779 53.3747 3.5 53.375H13.125C13.2471 53.3747 13.3678 53.3489 13.4793 53.2991C13.5908 53.2494 13.6907 53.1769 13.7725 53.0863C13.8545 52.994 13.9163 52.8857 13.954 52.7681C13.9917 52.6506 14.0044 52.5265 13.9913 52.4037L12.3638 37.2925C12.3226 37.0678 12.3696 36.8359 12.495 36.645L13.0112 35.875H23.625C23.9921 35.8738 24.3548 35.7952 24.6895 35.6445C25.0242 35.4937 25.3234 35.2741 25.5675 35H28V37.625H23.625C22.9294 37.6271 22.263 37.9043 21.7711 38.3961C21.2793 38.888 21.0021 39.5544 21 40.25V49C21.0021 49.6956 21.2793 50.362 21.7711 50.8539C22.263 51.3457 22.9294 51.6229 23.625 51.625H37.625C38.3206 51.6229 38.987 51.3457 39.4789 50.8539C39.9707 50.362 40.2479 49.6956 40.25 49V40.25C40.2479 39.5544 39.9707 38.888 39.4789 38.3961C38.987 37.9043 38.3206 37.6271 37.625 37.625H33.25V35H39.375C39.5704 34.9998 39.7602 34.9343 39.914 34.8138C40.0678 34.6932 40.1769 34.5247 40.2238 34.335L40.95 31.4388L43.75 31.185V31.5C43.75 32.4283 44.1188 33.3185 44.7751 33.9749C45.4315 34.6313 46.3217 35 47.25 35C48.1783 35 49.0685 34.6313 49.7249 33.9749C50.3812 33.3185 50.75 32.4283 50.75 31.5V21.875C50.75 21.6429 50.6578 21.4204 50.4937 21.2563C50.3296 21.0922 50.1071 21 49.875 21H48.125V19.25H54.25ZM10.7537 29.4963L11.2262 29.96C11.5512 30.2853 11.8088 30.6714 11.9845 31.0963C12.1601 31.5212 12.2504 31.9765 12.25 32.4362V32.8038C12.251 33.495 12.047 34.171 11.6637 34.7463L11.0425 35.6738C10.6681 36.2178 10.5206 36.8864 10.6312 37.5375L12.1538 51.625H4.4625L5.74 38.2375C5.87666 37.4208 5.84632 36.5849 5.65081 35.7803C5.4553 34.9757 5.09868 34.2191 4.6025 33.5562L4.025 32.7863C3.68523 32.3313 3.50113 31.779 3.5 31.2112V22.2075C3.49909 22.0966 3.5199 21.9866 3.56125 21.8838L5.25 17.6663V23.2663C5.25015 23.4958 5.29586 23.7231 5.38448 23.9349C5.4731 24.1466 5.60286 24.3387 5.76625 24.5L6.7725 25.515C7.0493 25.7886 7.40896 25.9628 7.79525 26.0102C8.18153 26.0577 8.57267 25.9759 8.9075 25.7775L11.6375 24.1325C11.7743 24.0536 11.9332 24.0221 12.0898 24.0427C12.2463 24.0633 12.3917 24.135 12.5033 24.2467C12.615 24.3583 12.6867 24.5037 12.7073 24.6602C12.7279 24.8168 12.6964 24.9757 12.6175 25.1125L10.6225 28.4288C10.5245 28.5965 10.4842 28.7918 10.5079 28.9847C10.5316 29.1775 10.618 29.3572 10.7537 29.4963ZM12.6 28.875C12.5562 28.8312 12.5212 28.7787 12.4775 28.735L14.1137 26.0138C14.3975 25.5431 14.5155 24.9909 14.4489 24.4454C14.3823 23.8998 14.1349 23.3923 13.7463 23.0037C13.3577 22.6151 12.8502 22.3677 12.3046 22.3011C11.7591 22.2345 11.2069 22.3525 10.7362 22.6363L10.5 22.7763V8.75H21V28.875H12.6ZM24.5 33.25C24.5 33.4821 24.4078 33.7046 24.2437 33.8687C24.0796 34.0328 23.8571 34.125 23.625 34.125H13.8162C13.9342 33.6944 13.996 33.2502 14 32.8038V32.4362C13.9992 31.8182 13.8896 31.2051 13.6763 30.625H21.875C22.1071 30.625 22.3296 30.5328 22.4937 30.3687C22.6578 30.2046 22.75 29.9821 22.75 29.75V7.875C22.75 7.64294 22.6578 7.42038 22.4937 7.25628C22.3296 7.09219 22.1071 7 21.875 7H9.625C9.39294 7 9.17038 7.09219 9.00628 7.25628C8.84219 7.42038 8.75 7.64294 8.75 7.875V23.8263L8.00625 24.2725L7 23.2663V6.125C7 5.89294 7.09219 5.67038 7.25628 5.50628C7.42038 5.34219 7.64294 5.25 7.875 5.25H23.625C23.8571 5.25 24.0796 5.34219 24.2437 5.50628C24.4078 5.67038 24.5 5.89294 24.5 6.125V33.25ZM37.625 39.375C37.8571 39.375 38.0796 39.4672 38.2437 39.6313C38.4078 39.7954 38.5 40.0179 38.5 40.25V49C38.5 49.2321 38.4078 49.4546 38.2437 49.6187C38.0796 49.7828 37.8571 49.875 37.625 49.875H23.625C23.3929 49.875 23.1704 49.7828 23.0063 49.6187C22.8422 49.4546 22.75 49.2321 22.75 49V40.25C22.75 40.0179 22.8422 39.7954 23.0063 39.6313C23.1704 39.4672 23.3929 39.375 23.625 39.375H37.625ZM29.75 37.625V35H31.5V37.625H29.75ZM43.75 29.435L40.1712 29.75C39.9896 29.7667 39.8177 29.8398 39.6797 29.9591C39.5416 30.0783 39.4443 30.2377 39.4012 30.415L38.6925 33.25H26.25V22.75H38.745L39.4188 24.78C39.4745 24.9405 39.575 25.0818 39.7083 25.1872C39.8416 25.2926 40.0022 25.3578 40.1712 25.375L43.75 25.69V29.435ZM49 22.75V31.5C49 31.9641 48.8156 32.4093 48.4874 32.7374C48.1592 33.0656 47.7141 33.25 47.25 33.25C46.7859 33.25 46.3408 33.0656 46.0126 32.7374C45.6844 32.4093 45.5 31.9641 45.5 31.5V22.75H49Z" fill="#2A7AC0"/>
        <path d="M36.3877 12.7629C36.143 13.0076 35.9762 13.3194 35.9087 13.6589C35.8411 13.9984 35.8757 14.3503 36.0082 14.6701C36.1406 14.9899 36.3649 15.2632 36.6527 15.4555C36.9405 15.6478 37.2789 15.7505 37.625 15.7505C37.9711 15.7505 38.3095 15.6478 38.5973 15.4555C38.8851 15.2632 39.1094 14.9899 39.2418 14.6701C39.3743 14.3503 39.4089 13.9984 39.3413 13.6589C39.2738 13.3194 39.107 13.0076 38.8622 12.7629C38.5341 12.4348 38.089 12.2505 37.625 12.2505C37.161 12.2505 36.7159 12.4348 36.3877 12.7629Z" fill="#2A7AC0"/>
        <path d="M41.3374 10.2885C40.8498 9.80089 40.271 9.4141 39.634 9.15021C38.997 8.88631 38.3142 8.75049 37.6247 8.75049C36.9352 8.75049 36.2525 8.88631 35.6154 9.15021C34.9784 9.4141 34.3996 9.80089 33.9121 10.2885L35.1494 11.5257C35.8166 10.8897 36.703 10.5349 37.6247 10.5349C38.5465 10.5349 39.4329 10.8897 40.1001 11.5257L41.3374 10.2885Z" fill="#2A7AC0"/>
        <path d="M43.8118 7.81317C42.1696 6.17462 39.9445 5.25439 37.6246 5.25439C35.3048 5.25439 33.0797 6.17462 31.4375 7.81317L32.6747 9.05042C33.9886 7.73973 35.7688 7.00366 37.6246 7.00366C39.4805 7.00366 41.2606 7.73973 42.5745 9.05042L43.8118 7.81317Z" fill="#2A7AC0"/>
        <path d="M37.6254 3.49991C39.0048 3.49599 40.3714 3.76582 41.6458 4.29376C42.9202 4.82171 44.0772 5.59727 45.0498 6.57553L46.2879 5.33741C45.1504 4.19976 43.7999 3.29732 42.3136 2.68162C40.8272 2.06592 39.2342 1.74902 37.6254 1.74902C36.0166 1.74902 34.4236 2.06592 32.9372 2.68162C31.4509 3.29732 30.1004 4.19976 28.9629 5.33741L30.2001 6.57466C31.1729 5.59645 32.3301 4.82098 33.6046 4.29319C34.8792 3.76539 36.2459 3.49576 37.6254 3.49991Z" fill="#2A7AC0"/>
        <path d="M44.7744 36.5996L43.5371 37.8369C44.0246 38.3245 44.6034 38.7113 45.2404 38.9752C45.8775 39.239 46.5602 39.3749 47.2497 39.3749C47.9393 39.3749 48.622 39.239 49.259 38.9752C49.8961 38.7113 50.4748 38.3245 50.9624 37.8369L49.7251 36.5996C49.0579 37.2356 48.1715 37.5904 47.2497 37.5904C46.328 37.5904 45.4416 37.2356 44.7744 36.5996Z" fill="#2A7AC0"/>
        <path d="M44.7744 40.0996L43.5371 41.3369C44.0246 41.8245 44.6034 42.2113 45.2404 42.4752C45.8775 42.739 46.5602 42.8749 47.2497 42.8749C47.9393 42.8749 48.622 42.739 49.259 42.4752C49.8961 42.2113 50.4748 41.8245 50.9624 41.3369L49.7251 40.0996C49.0579 40.7356 48.1715 41.0904 47.2497 41.0904C46.328 41.0904 45.4416 40.7356 44.7744 40.0996Z" fill="#2A7AC0"/>
        <path d="M15.75 12.25C15.0578 12.25 14.3811 12.4553 13.8055 12.8399C13.2299 13.2244 12.7813 13.7711 12.5164 14.4106C12.2515 15.0501 12.1822 15.7539 12.3173 16.4328C12.4523 17.1117 12.7856 17.7354 13.2751 18.2249C13.7646 18.7144 14.3883 19.0477 15.0672 19.1827C15.7461 19.3178 16.4499 19.2485 17.0894 18.9836C17.7289 18.7187 18.2756 18.2701 18.6601 17.6945C19.0447 17.1189 19.25 16.4422 19.25 15.75C19.25 14.8217 18.8813 13.9315 18.2249 13.2751C17.5685 12.6187 16.6783 12.25 15.75 12.25ZM15.75 17.5C15.4039 17.5 15.0655 17.3974 14.7778 17.2051C14.49 17.0128 14.2657 16.7395 14.1332 16.4197C14.0008 16.0999 13.9661 15.7481 14.0336 15.4086C14.1012 15.0691 14.2678 14.7573 14.5126 14.5126C14.7573 14.2678 15.0691 14.1011 15.4086 14.0336C15.7481 13.9661 16.0999 14.0008 16.4197 14.1332C16.7395 14.2657 17.0128 14.49 17.2051 14.7778C17.3974 15.0655 17.5 15.4039 17.5 15.75C17.5 16.2141 17.3156 16.6592 16.9874 16.9874C16.6592 17.3156 16.2141 17.5 15.75 17.5Z" fill="#2A7AC0"/>
    </symbol>
    <symbol fill="none" xmlns="http://www.w3.org/2000/svg" viewBox="0 0 24 24" id="download">
      <g clip-path="url(#clip0_49_1009)">
        <path d="M13 10H18L12 16L6 10H11V3H13V10ZM4 19H20V12H22V20C22 20.2652 21.8946 20.5196 21.7071 20.7071C21.5196 20.8946 21.2652 21 21 21H3C2.73478 21 2.48043 20.8946 2.29289 20.7071C2.10536 20.5196 2 20.2652 2 20V12H4V19Z" fill="white"></path>
      </g>
      <defs>
        <clipPath id="clip0_49_1009">
          <rect width="24" height="24" fill="white"></rect>
        </clipPath>
      </defs>
    </symbol>
    <symbol fill="none" xmlns="http://www.w3.org/2000/svg" viewBox="0 0 56 56" id="drone-2">
      <g clip-path="url(#clip0_49_962)">
        <path d="M9.58949 45.5894C9.37251 45.5894 9.161 45.677 9.00867 45.8305C8.85525 45.9828 8.76758 46.1954 8.76758 46.4113C8.76758 46.6272 8.85525 46.8398 9.00867 46.9921C9.161 47.1455 9.37251 47.2332 9.58949 47.2332C9.80538 47.2332 10.018 47.1455 10.1703 46.9921C10.3237 46.8398 10.4114 46.6272 10.4114 46.4113C10.4114 46.1954 10.3237 45.9828 10.1703 45.8305C10.018 45.677 9.80538 45.5894 9.58949 45.5894Z" fill="#2A7AC0"></path>
        <path d="M54.5968 37.0631L48.1999 43.46C47.6778 43.1424 47.0653 42.9593 46.4109 42.9593C45.7275 42.9593 45.0903 43.1598 44.5536 43.5038C44.514 43.393 44.4506 43.2888 44.362 43.2002L35.5949 34.4331C35.5544 34.3926 35.5108 34.3573 35.4649 34.3271L36.0475 24.4238C36.2029 24.3937 36.3512 24.3184 36.4716 24.1981L47.8688 12.8009C47.9114 12.7582 47.9481 12.7119 47.9793 12.6631C48.0542 12.6247 48.1282 12.5844 48.1999 12.5408L54.5968 18.9377C54.7572 19.0982 54.9677 19.1785 55.178 19.1785C55.3883 19.1785 55.5987 19.0983 55.7591 18.9377C56.0801 18.6168 56.0801 18.0964 55.7591 17.7754L49.3622 11.3785C49.6799 10.8564 49.8629 10.2439 49.8629 9.58948C49.8629 7.68604 48.3143 6.13744 46.4109 6.13744C45.7564 6.13744 45.1439 6.32056 44.6218 6.63815L38.225 0.241228C37.904 -0.0797581 37.3836 -0.0797581 37.0627 0.241228C36.7417 0.562213 36.7417 1.08254 37.0627 1.40353L43.4596 7.80045C43.1419 8.32253 42.9588 8.93502 42.9588 9.58948C42.9588 9.73502 42.9689 9.87814 42.9864 10.019L34.756 15.7803C34.531 15.4628 34.2835 15.1575 34.011 14.8684C32.4338 13.1956 30.299 12.2744 27.9999 12.2744C25.7009 12.2744 23.5661 13.1956 21.9889 14.8684C21.7163 15.1575 21.4689 15.4627 21.2439 15.7803L13.0134 10.019C13.031 9.87814 13.041 9.73502 13.041 9.58948C13.041 8.93502 12.8579 8.32253 12.5403 7.80045L18.9373 1.40353C19.2582 1.08254 19.2582 0.562213 18.9373 0.241228C18.6163 -0.0797581 18.0958 -0.0797581 17.775 0.241228L11.378 6.63815C10.856 6.32056 10.2435 6.13744 9.589 6.13744C7.68555 6.13744 6.13695 7.68604 6.13695 9.58948C6.13695 10.2439 6.32007 10.8564 6.63766 11.3785L0.240739 17.7754C-0.0802464 18.0964 -0.0802464 18.6168 0.240739 18.9377C0.401177 19.0983 0.611588 19.1785 0.821889 19.1785C1.03219 19.1785 1.2426 19.0983 1.40304 18.9377L7.79996 12.5408C7.87163 12.5844 7.9456 12.6247 8.02056 12.6631C8.0519 12.7119 8.0884 12.7582 8.13103 12.8009L19.5283 24.1981C19.6486 24.3184 19.797 24.3937 19.9524 24.4238L20.535 34.3271C20.489 34.3573 20.4454 34.3926 20.405 34.4331L11.6379 43.2002C11.5491 43.2889 11.4859 43.3931 11.4462 43.5038C10.9095 43.1598 10.2725 42.9593 9.589 42.9593C8.93453 42.9593 8.32204 43.1424 7.79996 43.46L1.40304 37.0631C1.08205 36.7421 0.561615 36.7421 0.240739 37.0631C-0.0802464 37.3841 -0.0802464 37.9045 0.240739 38.2254L6.63766 44.6223C6.32007 45.1444 6.13695 45.7569 6.13695 46.4113C6.13695 48.3148 7.68555 49.8634 9.589 49.8634C10.2435 49.8634 10.856 49.6804 11.378 49.3628L17.775 55.7597C17.9354 55.9202 18.1458 56.0005 18.3561 56.0005C18.5664 56.0005 18.7768 55.9202 18.9373 55.7597C19.2582 55.4387 19.2582 54.9183 18.9373 54.5974L12.7047 48.3648L22.7266 42.9684C23.4239 43.4466 24.266 43.7264 25.1696 43.7264H30.8303C31.7338 43.7264 32.5759 43.4466 33.2732 42.9684L43.2951 48.3648L37.0626 54.5974C36.7416 54.9184 36.7416 55.4388 37.0626 55.7597C37.223 55.9202 37.4334 56.0005 37.6437 56.0005C37.854 56.0005 38.0645 55.9202 38.2249 55.7597L44.6218 49.3628C45.1439 49.6804 45.7564 49.8634 46.4109 49.8634C48.3143 49.8634 49.8629 48.3148 49.8629 46.4113C49.8629 45.7569 49.6798 45.1444 49.3622 44.6224L55.7591 38.2255C56.0801 37.9045 56.0801 37.3841 55.7591 37.0632C55.4382 36.7422 54.9178 36.7422 54.5968 37.0631ZM43.1996 44.3625C43.2883 44.4512 43.3926 44.5145 43.5033 44.5541C43.1751 45.0662 42.9785 45.67 42.9612 46.318L34.4663 41.7438C34.8599 41.1357 35.1063 40.4222 35.1517 39.652L35.3371 36.5L43.1996 44.3625ZM46.4109 7.78127C47.4079 7.78127 48.2191 8.59245 48.2191 9.58948C48.2191 10.5866 47.4079 11.3977 46.4109 11.3977C45.4138 11.3977 44.6026 10.5866 44.6026 9.58948C44.6026 8.59245 45.4138 7.78127 46.4109 7.78127ZM43.6031 11.5939C44.0477 12.2149 44.6924 12.6827 45.4426 12.9024L36.1804 22.1646L36.2477 21.0214C36.326 19.6896 36.0894 18.3957 35.5707 17.2167L43.6031 11.5939ZM23.1849 15.9962C23.3404 15.8312 23.5028 15.6756 23.6713 15.5292V17.4797C23.6713 17.9336 24.0393 18.3016 24.4932 18.3016C24.9471 18.3016 25.3151 17.9336 25.3151 17.4797V14.8497C25.3151 14.7307 25.2892 14.6179 25.2438 14.5157C26.0953 14.1254 27.0289 13.9182 27.9999 13.9182C28.971 13.9182 29.9046 14.1254 30.7562 14.5157C30.7106 14.6179 30.6849 14.7307 30.6849 14.8497V17.4797C30.6849 17.9336 31.0528 18.3016 31.5068 18.3016C31.9607 18.3016 32.3287 17.9336 32.3287 17.4797V15.5292C32.4971 15.6756 32.6595 15.8312 32.815 15.9962C34.0785 17.3361 34.7147 19.0865 34.6065 20.9249L33.5106 39.5553C33.4598 40.4202 33.0009 41.1702 32.3287 41.6238V20.9867C32.3287 20.5328 31.9607 20.1648 31.5068 20.1648C31.0528 20.1648 30.6849 20.5328 30.6849 20.9867V42.0278C30.6849 42.0463 30.6864 42.0644 30.6876 42.0826H25.3123C25.3135 42.0644 25.315 42.0463 25.315 42.0278V20.9867C25.315 20.5328 24.947 20.1648 24.4931 20.1648C24.0392 20.1648 23.6712 20.5328 23.6712 20.9867V41.6238C22.9989 41.1702 22.5402 40.4202 22.4892 39.5553L21.3934 20.9249C21.2852 19.0865 21.9215 17.3361 23.1849 15.9962ZM9.589 7.78127C10.586 7.78127 11.3972 8.59245 11.3972 9.58948C11.3972 10.5866 10.586 11.3977 9.589 11.3977C8.59196 11.3977 7.78078 10.5866 7.78078 9.58948C7.78078 8.59245 8.59196 7.78127 9.589 7.78127ZM10.5573 12.9024C11.3076 12.6827 11.9523 12.2149 12.3969 11.5939L20.4294 17.2167C19.9106 18.3957 19.674 19.6896 19.7524 21.0214L19.8197 22.1646L10.5573 12.9024ZM20.663 36.4999L20.8484 39.6519C20.8937 40.4221 21.1401 41.1357 21.5336 41.7437L13.0387 46.3179C13.0214 45.6699 12.8248 45.0661 12.4966 44.554C12.6074 44.5144 12.7116 44.4511 12.8004 44.3624L20.663 36.4999ZM9.589 48.2196C8.59196 48.2196 7.78078 47.4085 7.78078 46.4113C7.78078 45.4143 8.59196 44.6031 9.589 44.6031C10.586 44.6031 11.3972 45.4143 11.3972 46.4113C11.3972 47.4085 10.586 48.2196 9.589 48.2196ZM46.4109 48.2196C45.4138 48.2196 44.6026 47.4085 44.6026 46.4113C44.6026 45.4143 45.4138 44.6031 46.4109 44.6031C47.4079 44.6031 48.2191 45.4143 48.2191 46.4113C48.2191 47.4085 47.4079 48.2196 46.4109 48.2196Z" fill="#2A7AC0"></path>
        <path d="M46.4098 45.5894C46.1939 45.5894 45.9813 45.677 45.829 45.8305C45.6756 45.9828 45.5879 46.1954 45.5879 46.4113C45.5879 46.6272 45.6756 46.8398 45.829 46.9921C45.9813 47.1455 46.1939 47.2332 46.4098 47.2332C46.6257 47.2332 46.8383 47.1455 46.9906 46.9921C47.1441 46.8398 47.2317 46.6272 47.2317 46.4113C47.2317 46.1954 47.1441 45.9828 46.9906 45.8305C46.8383 45.677 46.6257 45.5894 46.4098 45.5894Z" fill="#2A7AC0"></path>
        <path d="M46.4098 10.4109C46.6257 10.4109 46.8383 10.3233 46.9906 10.1698C47.1441 10.0175 47.2317 9.8049 47.2317 9.58901C47.2317 9.37312 47.1441 9.16051 46.9906 9.00818C46.8383 8.85476 46.6257 8.76709 46.4098 8.76709C46.1939 8.76709 45.9813 8.85476 45.829 9.00818C45.6756 9.16051 45.5879 9.37312 45.5879 9.58901C45.5879 9.8049 45.6756 10.0175 45.829 10.1698C45.9813 10.3233 46.1939 10.4109 46.4098 10.4109Z" fill="#2A7AC0"></path>
        <path d="M9.58949 10.4109C9.80538 10.4109 10.018 10.3233 10.1703 10.1698C10.3237 10.0175 10.4114 9.8049 10.4114 9.58901C10.4114 9.37312 10.3237 9.16051 10.1703 9.00818C10.018 8.85476 9.80538 8.76709 9.58949 8.76709C9.37251 8.76709 9.161 8.85476 9.00867 9.00818C8.85525 9.16051 8.76758 9.37312 8.76758 9.58901C8.76758 9.8049 8.85525 10.0175 9.00867 10.1698C9.161 10.3233 9.37251 10.4109 9.58949 10.4109Z" fill="#2A7AC0"></path>
        <path d="M27.9997 40.2193C28.4536 40.2193 28.8216 39.8514 28.8216 39.3974V36.7672C28.8216 36.3133 28.4536 35.9453 27.9997 35.9453C27.5457 35.9453 27.1777 36.3133 27.1777 36.7672V39.3974C27.1777 39.8514 27.5457 40.2193 27.9997 40.2193Z" fill="#2A7AC0"></path>
      </g>
      <defs>
        <clipPath id="clip0_49_962">
          <rect width="56" height="56" fill="white"></rect>
        </clipPath>
      </defs>
    </symbol>

  <symbol xmlns="http://www.w3.org/2000/svg" viewBox="0 0 48 48" id="facebook">
    <path fill="#3F51B5" d="M42,37c0,2.762-2.238,5-5,5H11c-2.761,0-5-2.238-5-5V11c0-2.762,2.239-5,5-5h26c2.762,0,5,2.238,5,5V37z"></path>
    <path fill="#FFF" d="M34.368,25H31v13h-5V25h-3v-4h3v-2.41c0.002-3.508,1.459-5.59,5.592-5.59H35v4h-2.287C31.104,17,31,17.6,31,18.723V21h4L34.368,25z"></path>
  </symbol>
  
  <symbol xmlns="http://www.w3.org/2000/svg" viewBox="0 0 48 48" id="insta">
    <path fill="#304ffe" d="M41.67,13.48c-0.4,0.26-0.97,0.5-1.21,0.77c-0.09,0.09-0.14,0.19-0.12,0.29v1.03l-0.3,1.01l-0.3,1l-0.33,1.1 l-0.68,2.25l-0.66,2.22l-0.5,1.67c0,0.26-0.01,0.52-0.03,0.77c-0.07,0.96-0.27,1.88-0.59,2.74c-0.19,0.53-0.42,1.04-0.7,1.52 c-0.1,0.19-0.22,0.38-0.34,0.56c-0.4,0.63-0.88,1.21-1.41,1.72c-0.41,0.41-0.86,0.79-1.35,1.11c0,0,0,0-0.01,0 c-0.08,0.07-0.17,0.13-0.27,0.18c-0.31,0.21-0.64,0.39-0.98,0.55c-0.23,0.12-0.46,0.22-0.7,0.31c-0.05,0.03-0.11,0.05-0.16,0.07 c-0.57,0.27-1.23,0.45-1.89,0.54c-0.04,0.01-0.07,0.01-0.11,0.02c-0.4,0.07-0.79,0.13-1.19,0.16c-0.18,0.02-0.37,0.03-0.55,0.03 l-0.71-0.04l-3.42-0.18c0-0.01-0.01,0-0.01,0l-1.72-0.09c-0.13,0-0.27,0-0.4-0.01c-0.54-0.02-1.06-0.08-1.58-0.19 c-0.01,0-0.01,0-0.01,0c-0.95-0.18-1.86-0.5-2.71-0.93c-0.47-0.24-0.93-0.51-1.36-0.82c-0.18-0.13-0.35-0.27-0.52-0.42 c-0.48-0.4-0.91-0.83-1.31-1.27c-0.06-0.06-0.11-0.12-0.16-0.18c-0.06-0.06-0.12-0.13-0.17-0.19c-0.38-0.48-0.7-0.97-0.96-1.49 c-0.24-0.46-0.43-0.95-0.58-1.49c-0.06-0.19-0.11-0.37-0.15-0.57c-0.01-0.01-0.02-0.03-0.02-0.05c-0.1-0.41-0.19-0.84-0.24-1.27 c-0.06-0.33-0.09-0.66-0.09-1c-0.02-0.13-0.02-0.27-0.02-0.4l1.91-2.95l1.87-2.88l0.85-1.31l0.77-1.18l0.26-0.41v-1.03 c0.02-0.23,0.03-0.47,0.02-0.69c-0.01-0.7-0.15-1.38-0.38-2.03c-0.22-0.69-0.53-1.34-0.85-1.94c-0.38-0.69-0.78-1.31-1.11-1.87 C14,7.4,13.66,6.73,13.75,6.26C14.47,6.09,15.23,6,16,6h16c4.18,0,7.78,2.6,9.27,6.26C41.43,12.65,41.57,13.06,41.67,13.48z"></path>
    <path fill="#4928f4" d="M42,16v0.27l-1.38,0.8l-0.88,0.51l-0.97,0.56l-1.94,1.13l-1.9,1.1l-1.94,1.12l-0.77,0.45 c0,0.48-0.12,0.92-0.34,1.32c-0.31,0.58-0.83,1.06-1.49,1.47c-0.67,0.41-1.49,0.74-2.41,0.98c0,0,0-0.01-0.01,0 c-3.56,0.92-8.42,0.5-10.78-1.26c-0.66-0.49-1.12-1.09-1.32-1.78c-0.06-0.23-0.09-0.48-0.09-0.73v-7.19 c0.01-0.15-0.09-0.3-0.27-0.45c-0.54-0.43-1.81-0.84-3.23-1.25c-1.11-0.31-2.3-0.62-3.3-0.92c-0.79-0.24-1.46-0.48-1.86-0.71 c0.18-0.35,0.39-0.7,0.61-1.03c1.4-2.05,3.54-3.56,6.02-4.13C14.47,6.09,15.23,6,16,6h10.8c5.37,0.94,10.32,3.13,14.47,6.26 c0.16,0.39,0.3,0.8,0.4,1.22c0.18,0.66,0.29,1.34,0.32,2.05C42,15.68,42,15.84,42,16z"></path>
    <path fill="#6200ea" d="M42,16v4.41l-0.22,0.68l-0.75,2.33l-0.78,2.4l-0.41,1.28l-0.38,1.19l-0.37,1.13l-0.36,1.12l-0.19,0.59 l-0.25,0.78c0,0.76-0.02,1.43-0.07,2c-0.01,0.06-0.02,0.12-0.02,0.18c-0.06,0.53-0.14,0.98-0.27,1.36 c-0.01,0.06-0.03,0.12-0.05,0.17c-0.26,0.72-0.65,1.18-1.23,1.48c-0.14,0.08-0.3,0.14-0.47,0.2c-0.53,0.18-1.2,0.27-2.02,0.32 c-0.6,0.04-1.29,0.05-2.07,0.05H31.4l-1.19-0.05L30,37.61l-2.17-0.09l-2.2-0.09l-7.25-0.3l-1.88-0.08h-0.26 c-0.78-0.01-1.45-0.06-2.03-0.14c-0.84-0.13-1.49-0.35-1.98-0.68c-0.7-0.45-1.11-1.11-1.35-2.03c-0.06-0.22-0.11-0.45-0.14-0.7 c-0.1-0.58-0.15-1.25-0.18-2c0-0.15,0-0.3-0.01-0.46c-0.01-0.01,0-0.01,0-0.01v-0.58c-0.01-0.29-0.01-0.59-0.01-0.9l0.05-1.61 l0.03-1.15l0.04-1.34v-0.19l0.07-2.46l0.07-2.46l0.07-2.31l0.06-2.27l0.02-0.6c0-0.31-1.05-0.49-2.22-0.64 c-0.93-0.12-1.95-0.23-2.56-0.37c0.05-0.23,0.1-0.46,0.16-0.68c0.18-0.72,0.45-1.4,0.79-2.05c0.18-0.35,0.39-0.7,0.61-1.03 c2.16-0.95,4.41-1.69,6.76-2.17c2.06-0.43,4.21-0.66,6.43-0.66c7.36,0,14.16,2.49,19.54,6.69c0.52,0.4,1.03,0.83,1.53,1.28 C42,15.68,42,15.84,42,16z"></path>
    <path fill="#673ab7" d="M42,18.37v4.54l-0.55,1.06l-1.05,2.05l-0.56,1.08l-0.51,0.99l-0.22,0.43c0,0.31,0,0.61-0.02,0.9 c0,0.43-0.02,0.84-0.05,1.22c-0.04,0.45-0.1,0.86-0.16,1.24c-0.15,0.79-0.36,1.47-0.66,2.03c-0.04,0.07-0.08,0.14-0.12,0.2 c-0.11,0.18-0.24,0.35-0.38,0.51c-0.18,0.22-0.38,0.41-0.61,0.57c-0.34,0.26-0.74,0.47-1.2,0.63c-0.57,0.21-1.23,0.35-2.01,0.43 c-0.51,0.05-1.07,0.08-1.68,0.08l-0.42,0.02l-2.08,0.12h-0.01L27.5,36.6l-2.25,0.13l-3.1,0.18l-3.77,0.22l-0.55,0.03 c-0.51,0-0.99-0.03-1.45-0.09c-0.05-0.01-0.09-0.02-0.14-0.02c-0.68-0.11-1.3-0.29-1.86-0.54c-0.68-0.3-1.27-0.7-1.77-1.18 c-0.44-0.43-0.82-0.92-1.13-1.47c-0.07-0.13-0.14-0.25-0.2-0.39c-0.3-0.59-0.54-1.25-0.72-1.97c-0.03-0.12-0.06-0.25-0.08-0.38 c-0.06-0.23-0.11-0.47-0.14-0.72c-0.11-0.64-0.17-1.32-0.2-2.03v-0.01c-0.01-0.29-0.02-0.57-0.02-0.87l-0.49-1.17l-0.07-0.18 L9.5,25.99L8.75,24.2l-0.12-0.29l-0.72-1.73l-0.8-1.93c0,0,0,0-0.01,0L6.29,18.3L6,17.59V16c0-0.63,0.06-1.25,0.17-1.85 c0.05-0.23,0.1-0.46,0.16-0.68c0.85-0.49,1.74-0.94,2.65-1.34c2.08-0.93,4.31-1.62,6.62-2.04c1.72-0.31,3.51-0.48,5.32-0.48 c7.31,0,13.94,2.65,19.12,6.97c0.2,0.16,0.39,0.32,0.58,0.49C41.09,17.48,41.55,17.91,42,18.37z"></path>
    <path fill="#8e24aa" d="M42,21.35v5.14l-0.57,1.19l-1.08,2.25l-0.01,0.03c0,0.43-0.02,0.82-0.05,1.17c-0.1,1.15-0.38,1.88-0.84,2.33 c-0.33,0.34-0.74,0.53-1.25,0.63c-0.03,0.01-0.07,0.01-0.1,0.02c-0.16,0.03-0.33,0.05-0.51,0.05c-0.62,0.06-1.35,0.02-2.19-0.04 c-0.09,0-0.19-0.01-0.29-0.02c-0.61-0.04-1.26-0.08-1.98-0.11c-0.39-0.01-0.8-0.02-1.22-0.02h-0.02l-1.01,0.08h-0.01l-2.27,0.16 l-2.59,0.2l-0.38,0.03l-3.03,0.22l-1.57,0.12l-1.55,0.11c-0.27,0-0.53,0-0.79-0.01c0,0-0.01-0.01-0.01,0 c-1.13-0.02-2.14-0.09-3.04-0.26c-0.83-0.14-1.56-0.36-2.18-0.69c-0.64-0.31-1.17-0.75-1.6-1.31c-0.41-0.55-0.71-1.24-0.9-2.07 c0-0.01,0-0.01,0-0.01c-0.14-0.67-0.22-1.45-0.22-2.33l-0.15-0.27L9.7,26.35l-0.13-0.22L9.5,25.99l-0.93-1.65l-0.46-0.83 l-0.58-1.03l-1-1.79L6,19.75v-3.68c0.88-0.58,1.79-1.09,2.73-1.55c1.14-0.58,2.32-1.07,3.55-1.47c1.34-0.44,2.74-0.79,4.17-1.02 c1.45-0.24,2.94-0.36,4.47-0.36c6.8,0,13.04,2.43,17.85,6.47c0.22,0.17,0.43,0.36,0.64,0.54c0.84,0.75,1.64,1.56,2.37,2.41 C41.86,21.18,41.94,21.26,42,21.35z"></path>
    <path fill="#c2185b" d="M42,24.71v7.23c-0.24-0.14-0.57-0.31-0.98-0.49c-0.22-0.11-0.47-0.22-0.73-0.32 c-0.38-0.17-0.79-0.33-1.25-0.49c-0.1-0.04-0.2-0.07-0.31-0.1c-0.18-0.07-0.37-0.13-0.56-0.19c-0.59-0.18-1.24-0.35-1.92-0.5 c-0.26-0.05-0.53-0.1-0.8-0.14c-0.87-0.15-1.8-0.24-2.77-0.25c-0.08-0.01-0.17-0.01-0.25-0.01l-2.57,0.02l-3.5,0.02h-0.01 l-7.49,0.06c-2.38,0-3.84,0.57-4.72,0.8c0,0-0.01,0-0.01,0.01c-0.93,0.24-1.22,0.09-1.3-1.54c-0.02-0.45-0.03-1.03-0.03-1.74 l-0.56-0.43l-0.98-0.74l-0.6-0.46l-0.12-0.09L8.88,24.1l-0.25-0.19l-0.52-0.4l-0.96-0.72L6,21.91v-3.4 c0.1-0.08,0.19-0.15,0.29-0.21c1.45-1,3-1.85,4.64-2.54c1.46-0.62,3-1.11,4.58-1.46c0.43-0.09,0.87-0.18,1.32-0.24 c1.33-0.23,2.7-0.34,4.09-0.34c6.01,0,11.53,2.09,15.91,5.55c0.66,0.52,1.3,1.07,1.9,1.66c0.82,0.78,1.59,1.61,2.3,2.49 c0.14,0.18,0.28,0.36,0.42,0.55C41.64,24.21,41.82,24.46,42,24.71z"></path>
    <path fill="#d81b60" d="M42,28.72V32c0,0.65-0.06,1.29-0.18,1.91c-0.18,0.92-0.49,1.8-0.91,2.62c-0.22,0.05-0.47,0.05-0.75,0.01 c-0.63-0.11-1.37-0.44-2.17-0.87c-0.04-0.01-0.08-0.03-0.11-0.05c-0.25-0.13-0.51-0.27-0.77-0.43c-0.53-0.29-1.09-0.61-1.65-0.91 c-0.12-0.06-0.24-0.12-0.35-0.18c-0.64-0.33-1.3-0.63-1.96-0.86c0,0,0,0-0.01,0c-0.14-0.05-0.29-0.1-0.44-0.14 c-0.57-0.16-1.15-0.26-1.71-0.26l-1.1-0.32l-4.87-1.41c0,0,0,0-0.01,0l-2.99-0.87h-0.01l-1.3-0.38c-3.76,0-6.07,1.6-7.19,0.99 c-0.44-0.23-0.7-0.81-0.79-1.95c-0.03-0.32-0.04-0.68-0.04-1.1l-1.17-0.57l-0.05-0.02h-0.01l-0.84-0.42L9.7,26.35l-0.07-0.03 l-0.17-0.09L7.5,25.28L6,24.55v-3.43c0.17-0.15,0.35-0.29,0.53-0.43c0.19-0.15,0.38-0.29,0.57-0.44c0.01,0,0.01,0,0.01,0 c1.18-0.85,2.43-1.6,3.76-2.22c1.55-0.74,3.2-1.31,4.91-1.68c0.25-0.06,0.51-0.12,0.77-0.16c1.42-0.27,2.88-0.41,4.37-0.41 c5.27,0,10.11,1.71,14.01,4.59c1.13,0.84,2.18,1.77,3.14,2.78c0.79,0.83,1.52,1.73,2.18,2.67c0.05,0.07,0.1,0.14,0.15,0.2 c0.37,0.54,0.71,1.09,1.03,1.66C41.64,28.02,41.82,28.37,42,28.72z"></path>
    <path fill="#f50057" d="M41.82,33.91c-0.18,0.92-0.49,1.8-0.91,2.62c-0.19,0.37-0.4,0.72-0.63,1.06c-0.14,0.21-0.29,0.41-0.44,0.6 c-0.36-0.14-0.89-0.34-1.54-0.56c0,0,0,0,0-0.01c-0.49-0.17-1.05-0.35-1.65-0.52c-0.17-0.05-0.34-0.1-0.52-0.15 c-0.71-0.19-1.45-0.36-2.17-0.46c-0.6-0.1-1.19-0.16-1.74-0.16l-0.46-0.13h-0.01l-2.42-0.7l-1.49-0.43l-1.66-0.48h-0.01l-0.54-0.15 l-6.53-1.88l-1.88-0.54l-1.4-0.33l-2.28-0.54l-0.28-0.07c0,0,0,0-0.01,0l-2.29-0.53c0-0.01,0-0.01,0-0.01l-0.41-0.09l-0.21-0.05 l-1.67-0.39l-0.19-0.05l-1.42-1.17L6,27.9v-4.08c0.37-0.36,0.75-0.7,1.15-1.03c0.12-0.11,0.25-0.21,0.38-0.31 c0.12-0.1,0.25-0.2,0.38-0.3c0.91-0.69,1.87-1.31,2.89-1.84c1.3-0.7,2.68-1.26,4.13-1.66c0.28-0.09,0.56-0.17,0.85-0.23 c1.64-0.41,3.36-0.62,5.14-0.62c4.47,0,8.63,1.35,12.07,3.66c1.71,1.15,3.25,2.53,4.55,4.1c0.66,0.79,1.26,1.62,1.79,2.5 c0.05,0.07,0.09,0.13,0.13,0.2c0.32,0.53,0.62,1.08,0.89,1.64c0.25,0.5,0.47,1,0.67,1.52C41.34,32.25,41.6,33.07,41.82,33.91z"></path>
    <path fill="#ff1744" d="M40.28,37.59c-0.14,0.21-0.29,0.41-0.44,0.6c-0.44,0.55-0.92,1.05-1.46,1.49c-0.47,0.39-0.97,0.74-1.5,1.04 c-0.2-0.05-0.4-0.11-0.61-0.19c-0.66-0.23-1.35-0.61-1.99-1.01c-0.96-0.61-1.79-1.27-2.16-1.57c-0.14-0.12-0.21-0.18-0.21-0.18 l-1.7-0.15L30,37.6l-2.2-0.19l-2.28-0.2l-3.37-0.3l-5.34-0.47l-0.02-0.01l-1.88-0.91l-1.9-0.92l-1.53-0.74l-0.33-0.16l-0.41-0.2 l-1.42-0.69L7.43,31.9l-0.59-0.29L6,31.35v-4.47c0.47-0.56,0.97-1.09,1.5-1.6c0.34-0.32,0.7-0.64,1.07-0.94 c0.06-0.05,0.12-0.1,0.18-0.14c0.04-0.05,0.09-0.08,0.13-0.1c0.59-0.48,1.21-0.91,1.85-1.3c0.74-0.47,1.52-0.89,2.33-1.24 c0.87-0.39,1.78-0.72,2.72-0.97c1.63-0.46,3.36-0.7,5.14-0.7c4.08,0,7.85,1.24,10.96,3.37c1.99,1.36,3.71,3.08,5.07,5.07 c0.45,0.64,0.85,1.32,1.22,2.02c0.13,0.26,0.26,0.52,0.37,0.78c0.12,0.25,0.23,0.5,0.34,0.75c0.21,0.52,0.4,1.04,0.57,1.58 c0.32,1,0.56,2.02,0.71,3.08C40.21,36.89,40.25,37.24,40.28,37.59z"></path>
    <path fill="#ff5722" d="M38.39,39.42c0,0.08,0,0.17-0.01,0.26c-0.47,0.39-0.97,0.74-1.5,1.04c-0.22,0.12-0.44,0.24-0.67,0.34 c-0.23,0.11-0.46,0.21-0.7,0.3c-0.34-0.18-0.8-0.4-1.29-0.61c-0.69-0.31-1.44-0.59-2.02-0.68c-0.14-0.03-0.27-0.04-0.39-0.04 l-1.64-0.21h-0.02l-2.04-0.27l-2.06-0.27l-0.96-0.12l-7.56-0.98c-0.49,0-1.01-0.03-1.55-0.1c-0.66-0.06-1.35-0.16-2.04-0.3 c-0.68-0.12-1.37-0.28-2.03-0.45c-0.69-0.16-1.37-0.35-2-0.53c-0.73-0.22-1.41-0.43-1.98-0.62c-0.47-0.15-0.87-0.29-1.18-0.4 c-0.18-0.43-0.33-0.88-0.44-1.34C6.1,33.66,6,32.84,6,32v-1.67c0.32-0.53,0.67-1.05,1.06-1.54c0.71-0.94,1.52-1.8,2.4-2.56 c0.03-0.04,0.07-0.07,0.1-0.09l0.01-0.01c0.31-0.28,0.63-0.53,0.97-0.77c0.04-0.04,0.08-0.07,0.12-0.1 c0.16-0.12,0.33-0.24,0.51-0.35c1.43-0.97,3.01-1.73,4.7-2.24c1.6-0.48,3.29-0.73,5.05-0.73c3.49,0,6.75,1.03,9.47,2.79 c2.01,1.29,3.74,2.99,5.06,4.98c0.16,0.23,0.31,0.46,0.46,0.7c0.69,1.17,1.26,2.43,1.68,3.75c0.05,0.15,0.09,0.3,0.13,0.46 c0.08,0.27,0.15,0.55,0.21,0.83c0.02,0.07,0.04,0.14,0.06,0.22c0.14,0.63,0.24,1.29,0.31,1.95c0,0.01,0,0.01,0,0.01 C38.36,38.22,38.39,38.82,38.39,39.42z"></path>
    <path fill="#ff6f00" d="M36.33,39.42c0,0.35-0.02,0.73-0.06,1.11c-0.02,0.18-0.04,0.36-0.06,0.53c-0.23,0.11-0.46,0.21-0.7,0.3 c-0.45,0.17-0.91,0.31-1.38,0.41c-0.32,0.07-0.65,0.13-0.98,0.16h-0.01c-0.31-0.19-0.67-0.42-1.04-0.68 c-0.67-0.47-1.37-1-1.93-1.43c-0.01-0.01-0.01-0.01-0.02-0.02c-0.59-0.45-1.01-0.79-1.01-0.79l-1.06,0.04l-2.04,0.07l-0.95,0.04 l-3.82,0.14l-3.23,0.12c-0.21,0.01-0.46,0.01-0.77,0h-0.01c-0.42-0.01-0.92-0.04-1.47-0.09c-0.64-0.05-1.34-0.11-2.05-0.18 c-0.69-0.08-1.39-0.16-2.06-0.24c-0.74-0.08-1.44-0.17-2.04-0.25c-0.47-0.06-0.88-0.11-1.21-0.15c-0.28-0.32-0.53-0.65-0.77-1.01 c-0.36-0.54-0.67-1.11-0.91-1.72c-0.18-0.43-0.33-0.88-0.44-1.34c0.29-0.89,0.67-1.73,1.12-2.54c0.36-0.66,0.78-1.29,1.24-1.89 c0.45-0.59,0.94-1.14,1.47-1.64v-0.01c0.15-0.15,0.3-0.29,0.45-0.42c0.28-0.26,0.57-0.5,0.87-0.73h0.01 c0.01-0.02,0.02-0.02,0.03-0.03c0.24-0.19,0.49-0.36,0.74-0.53c1.48-1.01,3.15-1.76,4.95-2.2c1.19-0.29,2.44-0.45,3.73-0.45 c2.54,0,4.94,0.61,7.05,1.71h0.01c1.81,0.93,3.41,2.21,4.7,3.75c0.71,0.82,1.32,1.72,1.82,2.67c0.35,0.64,0.65,1.31,0.9,1.99 c0.02,0.06,0.04,0.11,0.06,0.16c0.17,0.5,0.32,1.02,0.45,1.54c0.09,0.37,0.16,0.75,0.22,1.13c0.02,0.12,0.04,0.23,0.05,0.35 C36.28,37.99,36.33,38.7,36.33,39.42z"></path>
    <path fill="#ff9800" d="M34.28,39.42v0.1c0,0.34-0.03,0.77-0.06,1.23c-0.03,0.34-0.06,0.69-0.09,1.02c-0.32,0.07-0.65,0.13-0.98,0.16 h-0.01C32.76,41.98,32.39,42,32,42h-1.75l-0.38-0.11l-1.97-0.6l-2-0.6l-4.63-1.39l-2-0.6c0,0-0.83,0.33-2,0.72h-0.01 c-0.45,0.15-0.94,0.31-1.46,0.47c-0.65,0.19-1.34,0.38-2.02,0.53c-0.7,0.16-1.39,0.28-2.01,0.33c-0.19,0.02-0.38,0.03-0.55,0.03 c-0.56-0.31-1.1-0.68-1.59-1.09c-0.43-0.36-0.83-0.75-1.2-1.18c-0.28-0.32-0.53-0.65-0.77-1.01c0.07-0.45,0.15-0.89,0.27-1.32 c0.3-1.19,0.77-2.33,1.39-3.37c0.34-0.59,0.72-1.16,1.16-1.69c0.01-0.03,0.04-0.06,0.07-0.08c-0.01-0.01,0-0.01,0-0.01 c0.13-0.17,0.27-0.33,0.41-0.48c0-0.01,0-0.01,0-0.01c0.41-0.44,0.83-0.86,1.29-1.25c0.16-0.13,0.31-0.26,0.48-0.39 c0.03-0.03,0.06-0.05,0.1-0.08c2.25-1.72,5.06-2.76,8.09-2.76c3.44,0,6.57,1.29,8.94,3.41c1.14,1.03,2.11,2.26,2.84,3.63 c0.06,0.1,0.12,0.21,0.17,0.32c0.09,0.18,0.18,0.37,0.26,0.57c0.33,0.72,0.59,1.48,0.77,2.26c0.02,0.08,0.04,0.16,0.06,0.24 c0.08,0.37,0.15,0.75,0.2,1.13C34.24,38.21,34.28,38.81,34.28,39.42z"></path>
    <path fill="#ffc107" d="M32.22,39.42c0,0.2-0.01,0.42-0.02,0.65c-0.02,0.37-0.05,0.77-0.1,1.18c-0.02,0.25-0.06,0.5-0.1,0.75h-5.48 l-1.06-0.17l-4.14-0.66l-0.59-0.09l-1.35-0.22c-0.59,0-1.87,0.26-3.22,0.51c-0.71,0.13-1.43,0.27-2.08,0.36 c-0.08,0.01-0.16,0.02-0.23,0.03h-0.01c-0.7-0.15-1.38-0.38-2.02-0.68c-0.2-0.09-0.4-0.19-0.6-0.3c-0.56-0.31-1.1-0.68-1.59-1.09 c-0.01-0.12-0.02-0.22-0.02-0.27c0-0.26,0.01-0.51,0.03-0.76c0.04-0.64,0.13-1.26,0.27-1.86c0.22-0.91,0.54-1.79,0.97-2.6 c0.08-0.17,0.17-0.34,0.27-0.5c0.04-0.08,0.09-0.15,0.13-0.23c0.18-0.29,0.38-0.57,0.58-0.85c0.42-0.55,0.89-1.07,1.39-1.54 c0.01,0,0.01,0,0.01,0c0.04-0.04,0.08-0.08,0.12-0.11c0.05-0.04,0.09-0.09,0.14-0.12c0.2-0.18,0.4-0.34,0.61-0.49 c0-0.01,0.01-0.01,0.01-0.01c1.89-1.41,4.23-2.24,6.78-2.24c1.98,0,3.82,0.5,5.43,1.38h0.01c1.38,0.76,2.58,1.79,3.53,3.03 c0.37,0.48,0.7,0.99,0.98,1.53h0.01c0.05,0.1,0.1,0.2,0.15,0.3c0.3,0.59,0.54,1.21,0.72,1.85h0.01c0.01,0.05,0.03,0.1,0.04,0.15 c0.12,0.43,0.22,0.87,0.29,1.32c0.01,0.09,0.02,0.19,0.03,0.28C32.19,38.43,32.22,38.92,32.22,39.42z"></path>
    <path fill="#ffd54f" d="M30.17,39.31c0,0.16,0,0.33-0.02,0.49v0.01c0,0.01,0,0.01,0,0.01c-0.02,0.72-0.12,1.43-0.28,2.07 c0,0.04-0.01,0.07-0.03,0.11h-4.67l-3.85-0.83l-0.51-0.11l-0.08,0.02l-4.27,0.88L16.27,42H16c-0.64,0-1.27-0.06-1.88-0.18 c-0.09-0.02-0.18-0.04-0.27-0.06h-0.01c-0.7-0.15-1.38-0.38-2.02-0.68c-0.02-0.11-0.04-0.22-0.05-0.33 c-0.07-0.43-0.1-0.88-0.1-1.33c0-0.17,0-0.34,0.01-0.51c0.03-0.54,0.11-1.07,0.23-1.58c0.08-0.38,0.19-0.75,0.32-1.1 c0.11-0.31,0.24-0.61,0.38-0.9c0.12-0.25,0.26-0.49,0.4-0.73c0.14-0.23,0.29-0.45,0.45-0.67c0.4-0.55,0.87-1.06,1.39-1.51 c0.3-0.26,0.63-0.51,0.97-0.73c1.46-0.96,3.21-1.52,5.1-1.52c0.37,0,0.73,0.02,1.08,0.07h0.02c1.07,0.12,2.07,0.42,2.99,0.87 c0.01,0,0.01,0,0.01,0c1.45,0.71,2.68,1.78,3.58,3.1c0.15,0.22,0.3,0.46,0.43,0.7c0.11,0.19,0.21,0.39,0.3,0.59 c0.14,0.31,0.27,0.64,0.38,0.97h0.01c0.11,0.37,0.21,0.74,0.28,1.13v0.01C30.11,38.16,30.17,38.73,30.17,39.31z"></path>
    <path fill="#ffe082" d="M28.11,39.52v0.03c0,0.59-0.07,1.17-0.21,1.74c-0.05,0.24-0.12,0.48-0.21,0.71h-4.48l-2.29-0.63L18.63,42H16 c-0.64,0-1.27-0.06-1.88-0.18c-0.02-0.03-0.03-0.06-0.04-0.09c-0.14-0.43-0.25-0.86-0.3-1.31c-0.04-0.29-0.06-0.59-0.06-0.9 c0-0.12,0-0.25,0.02-0.37c0.01-0.47,0.08-0.93,0.2-1.37c0.06-0.3,0.15-0.59,0.27-0.87c0.04-0.14,0.1-0.27,0.17-0.4 c0.15-0.34,0.33-0.67,0.53-0.99c0.22-0.32,0.46-0.62,0.73-0.9c0.32-0.36,0.68-0.69,1.09-0.96c0.7-0.51,1.5-0.89,2.37-1.1 c0.58-0.16,1.19-0.24,1.82-0.24c2,0,3.79,0.8,5.09,2.09c0.05,0.05,0.11,0.11,0.16,0.18h0.01c0.14,0.15,0.27,0.3,0.4,0.47 c0.37,0.47,0.68,0.98,0.92,1.54c0.12,0.26,0.22,0.53,0.3,0.81c0.01,0.04,0.02,0.07,0.03,0.11c0.14,0.49,0.23,1,0.25,1.53 C28.1,39.2,28.11,39.36,28.11,39.52z"></path>
    <path fill="#ffecb3" d="M26.06,39.52c0,0.41-0.05,0.8-0.16,1.17c-0.1,0.4-0.25,0.78-0.44,1.14c-0.03,0.06-0.1,0.17-0.1,0.17h-8.88 c-0.01-0.01-0.02-0.03-0.02-0.04c-0.12-0.19-0.22-0.38-0.3-0.59c-0.2-0.46-0.32-0.96-0.36-1.48c-0.02-0.12-0.02-0.25-0.02-0.37 c0-0.06,0-0.13,0.01-0.19c0.01-0.44,0.07-0.86,0.19-1.25c0.1-0.36,0.23-0.69,0.4-1.01c0,0,0.01-0.01,0.01-0.02 c0.12-0.21,0.25-0.42,0.4-0.62c0.49-0.66,1.14-1.2,1.89-1.55c0.01,0,0.01,0,0.01,0c0.24-0.12,0.49-0.22,0.75-0.29c0,0,0,0,0.01,0 c0.46-0.14,0.96-0.21,1.47-0.21c0.59,0,1.16,0.09,1.68,0.28c0.19,0.05,0.37,0.13,0.55,0.22c0,0,0,0,0.01,0 c0.86,0.41,1.59,1.05,2.09,1.85c0.1,0.15,0.19,0.31,0.27,0.48c0.04,0.07,0.08,0.15,0.11,0.22c0.23,0.52,0.37,1.09,0.41,1.69 c0.01,0.05,0.01,0.1,0.01,0.16C26.06,39.36,26.06,39.44,26.06,39.52z"></path>
    <g>
      <path fill="none" stroke="#fff" stroke-linecap="round" stroke-linejoin="round" stroke-miterlimit="10" stroke-width="2" d="M30,11H18c-3.9,0-7,3.1-7,7v12c0,3.9,3.1,7,7,7h12c3.9,0,7-3.1,7-7V18C37,14.1,33.9,11,30,11z"></path>
      <circle cx="31" cy="16" r="1" fill="#fff"></circle>
    </g>
    <g>
      <circle cx="24" cy="24" r="6" fill="none" stroke="#fff" stroke-linecap="round" stroke-linejoin="round" stroke-miterlimit="10" stroke-width="2"></circle>
    </g>
  </symbol>

</svg>

  </svg>