<svg xmlns="http://www.w3.org/2000/svg" xmlns:xlink="http://www.w3.org/1999/xlink"><symbol fill="currentColor" viewBox="0 0 56 56" id="drone-1"><g clip-path="url(#aa)"><path d="M9.59 45.59a.823.823 0 0 0 0 1.643.825.825 0 0 0 .821-.822.825.825 0 0 0-.822-.822Z"/><path d="M54.597 37.063 48.2 43.46a3.432 3.432 0 0 0-1.79-.5c-.682 0-1.32.2-1.856.544a.816.816 0 0 0-.192-.304l-8.767-8.767a.825.825 0 0 0-.13-.106l.582-9.903a.819.819 0 0 0 .425-.226l11.397-11.397a.82.82 0 0 0 .11-.138c.075-.038.15-.079.22-.122l6.398 6.397a.82.82 0 0 0 1.162 0 .822.822 0 0 0 0-1.163l-6.397-6.396a3.43 3.43 0 0 0 .5-1.79 3.456 3.456 0 0 0-3.451-3.452c-.655 0-1.267.184-1.79.501L38.226.241a.822.822 0 1 0-1.162 1.163L43.46 7.8a3.43 3.43 0 0 0-.474 2.219l-8.23 5.761a8.452 8.452 0 0 0-.745-.912A8.184 8.184 0 0 0 28 12.274a8.183 8.183 0 0 0-6.011 2.594 8.43 8.43 0 0 0-.745.912l-8.23-5.761A3.432 3.432 0 0 0 12.54 7.8l6.396-6.396A.822.822 0 0 0 17.775.24l-6.397 6.397a3.431 3.431 0 0 0-1.789-.5 3.456 3.456 0 0 0-3.452 3.451c0 .655.183 1.267.5 1.79L.242 17.774a.822.822 0 1 0 1.162 1.163L7.8 12.54c.072.043.146.084.22.122a.826.826 0 0 0 .111.138l11.397 11.397c.12.12.269.196.424.226l.583 9.903a.816.816 0 0 0-.13.106L11.638 43.2a.817.817 0 0 0-.192.304 3.43 3.43 0 0 0-1.857-.545c-.654 0-1.267.183-1.789.501l-6.397-6.397a.822.822 0 1 0-1.162 1.162l6.397 6.397a3.432 3.432 0 0 0-.501 1.79 3.456 3.456 0 0 0 3.452 3.451c.654 0 1.267-.183 1.789-.5l6.397 6.397a.82.82 0 0 0 1.162 0 .822.822 0 0 0 0-1.163l-6.232-6.232 10.022-5.397c.697.479 1.539.758 2.443.758h5.66c.904 0 1.746-.28 2.443-.758l10.022 5.397-6.232 6.232a.822.822 0 1 0 1.162 1.163l6.397-6.397c.522.317 1.134.5 1.789.5a3.456 3.456 0 0 0 3.452-3.452c0-.654-.183-1.267-.5-1.789l6.396-6.397a.822.822 0 1 0-1.162-1.162Zm-11.397 7.3a.817.817 0 0 0 .303.191 3.43 3.43 0 0 0-.542 1.764l-8.495-4.574c.394-.608.64-1.322.686-2.092l.185-3.152 7.863 7.862ZM46.41 7.78a1.81 1.81 0 0 1 1.81 1.808 1.81 1.81 0 0 1-1.81 1.809 1.81 1.81 0 0 1-1.807-1.809 1.81 1.81 0 0 1 1.808-1.808Zm-2.807 3.813a3.464 3.464 0 0 0 1.84 1.308l-9.263 9.263.068-1.144a8.215 8.215 0 0 0-.677-3.804l8.032-5.623Zm-20.418 4.402c.155-.165.318-.32.486-.467v1.95a.822.822 0 0 0 1.644 0v-2.63a.82.82 0 0 0-.071-.333A6.593 6.593 0 0 1 28 13.918c.971 0 1.905.207 2.756.598a.817.817 0 0 0-.071.334v2.63a.822.822 0 1 0 1.644 0v-1.95c.168.146.33.301.486.466a6.555 6.555 0 0 1 1.791 4.929l-1.095 18.63a2.683 2.683 0 0 1-1.182 2.069V20.987a.822.822 0 0 0-1.644 0v21.04c0 .02.001.037.003.056h-5.376l.003-.055V20.987a.822.822 0 0 0-1.644 0v20.637a2.684 2.684 0 0 1-1.182-2.069l-1.096-18.63a6.555 6.555 0 0 1 1.792-4.929ZM9.589 7.781a1.81 1.81 0 0 1 1.808 1.808 1.81 1.81 0 0 1-1.808 1.809 1.81 1.81 0 0 1-1.808-1.809 1.81 1.81 0 0 1 1.808-1.808Zm.968 5.121a3.464 3.464 0 0 0 1.84-1.308l8.032 5.623a8.213 8.213 0 0 0-.677 3.804l.068 1.144-9.263-9.263ZM20.663 36.5l.185 3.152c.046.77.292 1.484.686 2.092l-8.495 4.574a3.43 3.43 0 0 0-.542-1.764.817.817 0 0 0 .303-.192l7.863-7.862ZM9.589 48.22a1.81 1.81 0 0 1-1.808-1.809 1.81 1.81 0 0 1 1.808-1.808 1.81 1.81 0 0 1 1.808 1.808A1.81 1.81 0 0 1 9.59 48.22Zm36.822 0a1.81 1.81 0 0 1-1.808-1.809 1.81 1.81 0 0 1 1.808-1.808 1.81 1.81 0 0 1 1.808 1.808 1.81 1.81 0 0 1-1.808 1.809Z"/><path d="M46.41 45.59a.825.825 0 0 0-.822.821.825.825 0 0 0 .822.822.825.825 0 0 0 .822-.822.825.825 0 0 0-.822-.822ZM46.41 10.41a.825.825 0 0 0 .822-.821.825.825 0 0 0-.822-.822.825.825 0 0 0-.822.822.825.825 0 0 0 .822.822ZM9.59 10.41a.825.825 0 0 0 .821-.821.825.825 0 0 0-.822-.822.823.823 0 0 0 0 1.644ZM28 40.22a.822.822 0 0 0 .822-.823v-2.63a.822.822 0 0 0-1.644 0v2.63c0 .454.368.822.822.822Z"/></g><defs><clipPath id="aa"><path d="M0 0h56v56H0z"/></clipPath></defs></symbol></svg>